<svg width="30" height="30" viewBox="0 0 30 30" fill="none" xmlns="http://www.w3.org/2000/svg">
<path d="M23.75 13.7516H8.925L13.4625 8.30157C13.6747 8.04629 13.7768 7.71719 13.7463 7.38666C13.7158 7.05613 13.5553 6.75124 13.3 6.53907C13.0447 6.32689 12.7156 6.22481 12.3851 6.25529C12.0546 6.28576 11.7497 6.44629 11.5375 6.70157L5.2875 14.2016C5.24545 14.2612 5.20785 14.3239 5.175 14.3891C5.175 14.4516 5.175 14.4891 5.0875 14.5516C5.03084 14.6949 5.00118 14.8475 5 15.0016C5.00118 15.1557 5.03084 15.3082 5.0875 15.4516C5.0875 15.5141 5.0875 15.5516 5.175 15.6141C5.20785 15.6792 5.24545 15.7419 5.2875 15.8016L11.5375 23.3016C11.655 23.4427 11.8022 23.5561 11.9686 23.6339C12.1349 23.7117 12.3164 23.7519 12.5 23.7516C12.7921 23.7521 13.0751 23.6504 13.3 23.4641C13.4266 23.3591 13.5312 23.2303 13.6079 23.0848C13.6846 22.9394 13.7318 22.7803 13.7469 22.6165C13.762 22.4528 13.7447 22.2877 13.6959 22.1307C13.6471 21.9737 13.5678 21.8279 13.4625 21.7016L8.925 16.2516H23.75C24.0815 16.2516 24.3995 16.1199 24.6339 15.8854C24.8683 15.651 25 15.3331 25 15.0016C25 14.67 24.8683 14.3521 24.6339 14.1177C24.3995 13.8833 24.0815 13.7516 23.75 13.7516Z" fill="black"/>
</svg>
