<svg width="494" height="220" viewBox="0 0 494 220" fill="none" xmlns="http://www.w3.org/2000/svg">
<path d="M478.477 207.921H476.281V214.203H478.477C480.484 214.203 481.789 212.97 481.789 211.071C481.789 209.163 480.484 207.921 478.477 207.921ZM477.541 213.132V208.983H478.432C479.755 208.983 480.502 209.766 480.502 211.071C480.502 212.376 479.755 213.132 478.432 213.132H477.541ZM484.874 210.171C485.522 210.171 486.044 210.585 486.062 211.242H483.695C483.794 210.558 484.271 210.171 484.874 210.171ZM487.241 212.637H485.882C485.72 212.97 485.423 213.24 484.883 213.24C484.253 213.24 483.749 212.826 483.686 212.088H487.331C487.358 211.926 487.367 211.764 487.367 211.602C487.367 210.117 486.35 209.136 484.91 209.136C483.434 209.136 482.408 210.135 482.408 211.71C482.408 213.276 483.461 214.284 484.91 214.284C486.143 214.284 486.971 213.555 487.241 212.637ZM487.963 211.71C487.963 213.276 488.989 214.284 490.429 214.284C491.671 214.284 492.508 213.582 492.778 212.52H491.419C491.266 212.97 490.942 213.204 490.42 213.204C489.718 213.204 489.25 212.682 489.25 211.71C489.25 210.738 489.718 210.207 490.42 210.207C490.942 210.207 491.275 210.477 491.419 210.9H492.778C492.508 209.784 491.671 209.136 490.429 209.136C488.989 209.136 487.963 210.144 487.963 211.71Z" fill="#CBD5E0"/>
<path d="M439.275 208.223V213.763L435.615 208.223H434.705V215.203H435.615V209.653L439.275 215.203H440.185V208.223H439.275ZM446.936 212.453C446.936 210.723 445.726 209.633 444.166 209.633C442.616 209.633 441.396 210.723 441.396 212.453C441.396 214.193 442.576 215.293 444.126 215.293C445.686 215.293 446.936 214.193 446.936 212.453ZM442.326 212.453C442.326 211.073 443.196 210.423 444.156 210.423C445.096 210.423 446.006 211.073 446.006 212.453C446.006 213.843 445.076 214.493 444.126 214.493C443.176 214.493 442.326 213.843 442.326 212.453ZM447.483 209.723L449.633 215.203H450.693L452.843 209.723H451.873L450.173 214.363L448.463 209.723H447.483Z" fill="#CBD5E0"/>
<path d="M400.058 211.044C400.058 209.163 398.636 207.831 396.845 207.831C395.072 207.831 393.623 209.163 393.623 211.044C393.623 212.934 395.072 214.266 396.845 214.266C398.627 214.266 400.058 212.934 400.058 211.044ZM394.919 211.044C394.919 209.766 395.702 208.965 396.845 208.965C397.979 208.965 398.762 209.766 398.762 211.044C398.762 212.322 397.979 213.141 396.845 213.141C395.702 213.141 394.919 212.322 394.919 211.044ZM400.671 211.71C400.671 213.276 401.697 214.284 403.137 214.284C404.379 214.284 405.216 213.582 405.486 212.52H404.127C403.974 212.97 403.65 213.204 403.128 213.204C402.426 213.204 401.958 212.682 401.958 211.71C401.958 210.738 402.426 210.207 403.128 210.207C403.65 210.207 403.983 210.477 404.127 210.9H405.486C405.216 209.784 404.379 209.136 403.137 209.136C401.697 209.136 400.671 210.144 400.671 211.71ZM406.607 212.655C406.607 213.798 407.246 214.203 408.2 214.203H408.992V213.141H408.407C408.011 213.141 407.876 212.997 407.876 212.664V210.252H408.992V209.217H407.876V207.984H406.607V209.217H406.013V210.252H406.607V212.655Z" fill="#CBD5E0"/>
<path d="M354.647 214.266C354.209 214.266 353.813 214.191 353.459 214.041C353.111 213.891 352.835 213.675 352.631 213.393C352.427 213.111 352.322 212.778 352.316 212.394H353.666C353.684 212.652 353.774 212.856 353.936 213.006C354.104 213.156 354.332 213.231 354.62 213.231C354.914 213.231 355.145 213.162 355.313 213.024C355.481 212.88 355.565 212.694 355.565 212.466C355.565 212.28 355.508 212.127 355.394 212.007C355.28 211.887 355.136 211.794 354.962 211.728C354.794 211.656 354.56 211.578 354.26 211.494C353.852 211.374 353.519 211.257 353.261 211.143C353.009 211.023 352.79 210.846 352.604 210.612C352.424 210.372 352.334 210.054 352.334 209.658C352.334 209.286 352.427 208.962 352.613 208.686C352.799 208.41 353.06 208.2 353.396 208.056C353.732 207.906 354.116 207.831 354.548 207.831C355.196 207.831 355.721 207.99 356.123 208.308C356.531 208.62 356.756 209.058 356.798 209.622H355.412C355.4 209.406 355.307 209.229 355.133 209.091C354.965 208.947 354.74 208.875 354.458 208.875C354.212 208.875 354.014 208.938 353.864 209.064C353.72 209.19 353.648 209.373 353.648 209.613C353.648 209.781 353.702 209.922 353.81 210.036C353.924 210.144 354.062 210.234 354.224 210.306C354.392 210.372 354.626 210.45 354.926 210.54C355.334 210.66 355.667 210.78 355.925 210.9C356.183 211.02 356.405 211.2 356.591 211.44C356.777 211.68 356.87 211.995 356.87 212.385C356.87 212.721 356.783 213.033 356.609 213.321C356.435 213.609 356.18 213.84 355.844 214.014C355.508 214.182 355.109 214.266 354.647 214.266ZM362.598 211.602C362.598 211.782 362.586 211.944 362.562 212.088H358.917C358.947 212.448 359.073 212.73 359.295 212.934C359.517 213.138 359.79 213.24 360.114 213.24C360.582 213.24 360.915 213.039 361.113 212.637H362.472C362.328 213.117 362.052 213.513 361.644 213.825C361.236 214.131 360.735 214.284 360.141 214.284C359.661 214.284 359.229 214.179 358.845 213.969C358.467 213.753 358.17 213.45 357.954 213.06C357.744 212.67 357.639 212.22 357.639 211.71C357.639 211.194 357.744 210.741 357.954 210.351C358.164 209.961 358.458 209.661 358.836 209.451C359.214 209.241 359.649 209.136 360.141 209.136C360.615 209.136 361.038 209.238 361.41 209.442C361.788 209.646 362.079 209.937 362.283 210.315C362.493 210.687 362.598 211.116 362.598 211.602ZM361.293 211.242C361.287 210.918 361.17 210.66 360.942 210.468C360.714 210.27 360.435 210.171 360.105 210.171C359.793 210.171 359.529 210.267 359.313 210.459C359.103 210.645 358.974 210.906 358.926 211.242H361.293ZM364.777 209.937C364.939 209.709 365.161 209.52 365.443 209.37C365.731 209.214 366.058 209.136 366.424 209.136C366.85 209.136 367.234 209.241 367.576 209.451C367.924 209.661 368.197 209.961 368.395 210.351C368.599 210.735 368.701 211.182 368.701 211.692C368.701 212.202 368.599 212.655 368.395 213.051C368.197 213.441 367.924 213.744 367.576 213.96C367.234 214.176 366.85 214.284 366.424 214.284C366.058 214.284 365.734 214.209 365.452 214.059C365.176 213.909 364.951 213.72 364.777 213.492V216.579H363.517V209.217H364.777V209.937ZM367.414 211.692C367.414 211.392 367.351 211.134 367.225 210.918C367.105 210.696 366.943 210.528 366.739 210.414C366.541 210.3 366.325 210.243 366.091 210.243C365.863 210.243 365.647 210.303 365.443 210.423C365.245 210.537 365.083 210.705 364.957 210.927C364.837 211.149 364.777 211.41 364.777 211.71C364.777 212.01 364.837 212.271 364.957 212.493C365.083 212.715 365.245 212.886 365.443 213.006C365.647 213.12 365.863 213.177 366.091 213.177C366.325 213.177 366.541 213.117 366.739 212.997C366.943 212.877 367.105 212.706 367.225 212.484C367.351 212.262 367.414 211.998 367.414 211.692Z" fill="#CBD5E0"/>
<path d="M314.745 214.203H316.077L313.818 207.912H312.351L310.092 214.203H311.415L311.829 213.006H314.331L314.745 214.203ZM313.989 211.998H312.171L313.08 209.37L313.989 211.998ZM321.628 209.217H320.359V211.962C320.359 212.763 319.927 213.195 319.243 213.195C318.577 213.195 318.136 212.763 318.136 211.962V209.217H316.876V212.142C316.876 213.51 317.713 214.266 318.874 214.266C319.495 214.266 320.044 213.996 320.359 213.573V214.203H321.628V209.217ZM322.547 211.692C322.547 213.249 323.555 214.284 324.824 214.284C325.607 214.284 326.174 213.897 326.471 213.465V214.239C326.471 215.166 325.931 215.562 325.238 215.562C324.608 215.562 324.14 215.265 324.014 214.815H322.763C322.889 215.958 323.87 216.66 325.274 216.66C326.912 216.66 327.74 215.589 327.74 214.239V209.217H326.471V209.928C326.174 209.496 325.607 209.136 324.824 209.136C323.555 209.136 322.547 210.135 322.547 211.692ZM326.471 211.71C326.471 212.655 325.841 213.177 325.148 213.177C324.473 213.177 323.834 212.637 323.834 211.692C323.834 210.747 324.473 210.243 325.148 210.243C325.841 210.243 326.471 210.765 326.471 211.71Z" fill="#CBD5E0"/>
<path d="M273.618 212.331C273.618 212.826 273.384 213.141 272.916 213.141C272.439 213.141 272.196 212.817 272.187 212.286H270.927C270.927 213.555 271.755 214.266 272.934 214.266C274.095 214.266 274.887 213.573 274.887 212.331V207.921H273.618V212.331ZM281.064 209.217H279.795V211.962C279.795 212.763 279.363 213.195 278.679 213.195C278.013 213.195 277.572 212.763 277.572 211.962V209.217H276.312V212.142C276.312 213.51 277.149 214.266 278.31 214.266C278.931 214.266 279.48 213.996 279.795 213.573V214.203H281.064V209.217ZM282.307 214.203H283.567V207.543H282.307V214.203Z" fill="#CBD5E0"/>
<path d="M232.442 212.331C232.442 212.826 232.208 213.141 231.74 213.141C231.263 213.141 231.02 212.817 231.011 212.286H229.751C229.751 213.555 230.579 214.266 231.758 214.266C232.919 214.266 233.711 213.573 233.711 212.331V207.921H232.442V212.331ZM239.888 209.217H238.619V211.962C238.619 212.763 238.187 213.195 237.503 213.195C236.837 213.195 236.396 212.763 236.396 211.962V209.217H235.136V212.142C235.136 213.51 235.973 214.266 237.134 214.266C237.755 214.266 238.304 213.996 238.619 213.573V214.203H239.888V209.217ZM244.623 214.203H245.883V211.278C245.883 209.901 245.055 209.145 243.894 209.145C243.255 209.145 242.715 209.415 242.391 209.838V209.217H241.131V214.203H242.391V211.449C242.391 210.648 242.832 210.216 243.516 210.216C244.182 210.216 244.623 210.648 244.623 211.449V214.203Z" fill="#CBD5E0"/>
<path d="M188.048 214.203H189.308V210.117L191 214.203H191.954L193.637 210.117V214.203H194.897V207.921H193.475L191.477 212.592L189.479 207.921H188.048V214.203ZM195.819 211.692C195.819 213.249 196.827 214.284 198.087 214.284C198.879 214.284 199.446 213.906 199.743 213.474V214.203H201.012V209.217H199.743V209.928C199.446 209.514 198.897 209.136 198.096 209.136C196.827 209.136 195.819 210.135 195.819 211.692ZM199.743 211.71C199.743 212.655 199.113 213.177 198.42 213.177C197.745 213.177 197.106 212.637 197.106 211.692C197.106 210.747 197.745 210.243 198.42 210.243C199.113 210.243 199.743 210.765 199.743 211.71ZM204.367 212.7L203.08 209.217H201.667L203.665 214.077L202.585 216.561H203.926L207.013 209.217H205.672L204.367 212.7Z" fill="#CBD5E0"/>
<path d="M151.413 214.203H152.745L150.486 207.912H149.019L146.76 214.203H148.083L148.497 213.006H150.999L151.413 214.203ZM150.657 211.998H148.839L149.748 209.37L150.657 211.998ZM154.849 209.937V209.217H153.589V216.579H154.849V213.492C155.155 213.897 155.713 214.284 156.496 214.284C157.774 214.284 158.773 213.249 158.773 211.692C158.773 210.135 157.774 209.136 156.496 209.136C155.722 209.136 155.146 209.514 154.849 209.937ZM157.486 211.692C157.486 212.637 156.847 213.177 156.163 213.177C155.488 213.177 154.849 212.655 154.849 211.71C154.849 210.765 155.488 210.243 156.163 210.243C156.847 210.243 157.486 210.747 157.486 211.692ZM160.949 211.719C160.949 210.756 161.399 210.468 162.146 210.468H162.479V209.145C161.786 209.145 161.264 209.478 160.949 209.991V209.217H159.689V214.203H160.949V211.719Z" fill="#CBD5E0"/>
<path d="M105.971 214.203H107.231V210.117L108.923 214.203H109.877L111.56 210.117V214.203H112.82V207.921H111.398L109.4 212.592L107.402 207.921H105.971V214.203ZM113.741 211.692C113.741 213.249 114.749 214.284 116.009 214.284C116.801 214.284 117.368 213.906 117.665 213.474V214.203H118.934V209.217H117.665V209.928C117.368 209.514 116.819 209.136 116.018 209.136C114.749 209.136 113.741 210.135 113.741 211.692ZM117.665 211.71C117.665 212.655 117.035 213.177 116.342 213.177C115.667 213.177 115.028 212.637 115.028 211.692C115.028 210.747 115.667 210.243 116.342 210.243C117.035 210.243 117.665 210.765 117.665 211.71ZM121.425 211.719C121.425 210.756 121.875 210.468 122.622 210.468H122.955V209.145C122.262 209.145 121.74 209.478 121.425 209.991V209.217H120.165V214.203H121.425V211.719Z" fill="#CBD5E0"/>
<path d="M64.7946 214.203H66.0546V211.548H68.0616V210.549H66.0546V208.938H68.6736V207.921H64.7946V214.203ZM71.709 210.171C72.357 210.171 72.879 210.585 72.897 211.242H70.53C70.629 210.558 71.106 210.171 71.709 210.171ZM74.076 212.637H72.717C72.555 212.97 72.258 213.24 71.718 213.24C71.088 213.24 70.584 212.826 70.521 212.088H74.166C74.193 211.926 74.202 211.764 74.202 211.602C74.202 210.117 73.185 209.136 71.745 209.136C70.269 209.136 69.243 210.135 69.243 211.71C69.243 213.276 70.296 214.284 71.745 214.284C72.978 214.284 73.806 213.555 74.076 212.637ZM76.3817 209.946V207.543H75.1217V214.203H76.3817V213.492C76.6877 213.924 77.2457 214.284 78.0287 214.284C79.3067 214.284 80.3057 213.249 80.3057 211.692C80.3057 210.135 79.3067 209.136 78.0287 209.136C77.2727 209.136 76.6877 209.487 76.3817 209.946ZM79.0187 211.692C79.0187 212.637 78.3797 213.177 77.6957 213.177C77.0207 213.177 76.3817 212.655 76.3817 211.71C76.3817 210.765 77.0207 210.243 77.6957 210.243C78.3797 210.243 79.0187 210.747 79.0187 211.692Z" fill="#CBD5E0"/>
<path d="M26.287 212.331C26.287 212.826 26.053 213.141 25.585 213.141C25.108 213.141 24.865 212.817 24.856 212.286H23.596C23.596 213.555 24.424 214.266 25.603 214.266C26.764 214.266 27.556 213.573 27.556 212.331V207.921H26.287V212.331ZM28.7018 211.692C28.7018 213.249 29.7098 214.284 30.9698 214.284C31.7618 214.284 32.3288 213.906 32.6258 213.474V214.203H33.8948V209.217H32.6258V209.928C32.3288 209.514 31.7798 209.136 30.9788 209.136C29.7098 209.136 28.7018 210.135 28.7018 211.692ZM32.6258 211.71C32.6258 212.655 31.9958 213.177 31.3028 213.177C30.6278 213.177 29.9888 212.637 29.9888 211.692C29.9888 210.747 30.6278 210.243 31.3028 210.243C31.9958 210.243 32.6258 210.765 32.6258 211.71ZM38.6174 214.203H39.8774V211.278C39.8774 209.901 39.0494 209.145 37.8884 209.145C37.2494 209.145 36.7094 209.415 36.3854 209.838V209.217H35.1254V214.203H36.3854V211.449C36.3854 210.648 36.8264 210.216 37.5104 210.216C38.1764 210.216 38.6174 210.648 38.6174 211.449V214.203Z" fill="#CBD5E0"/>
<path d="M7.27851 195.15C7.27851 197.067 7.85451 198.498 9.70851 198.498C11.5625 198.498 12.1385 197.067 12.1385 195.15C12.1385 193.251 11.5625 191.829 9.70851 191.829C7.85451 191.829 7.27851 193.251 7.27851 195.15ZM10.8965 195.15C10.8965 196.32 10.7705 197.328 9.70851 197.328C8.64651 197.328 8.52051 196.32 8.52051 195.15C8.52051 194.025 8.64651 192.999 9.70851 192.999C10.7705 192.999 10.8965 194.025 10.8965 195.15Z" fill="#CBD5E0"/>
<path d="M1.08645 155.514V154.353H3.25545V160.914H1.95945V155.514H1.08645ZM4.50019 157.548C4.50019 156.51 4.68619 155.697 5.05819 155.109C5.43619 154.521 6.06019 154.227 6.93019 154.227C7.80019 154.227 8.42119 154.521 8.79319 155.109C9.17119 155.697 9.36019 156.51 9.36019 157.548C9.36019 158.592 9.17119 159.411 8.79319 160.005C8.42119 160.599 7.80019 160.896 6.93019 160.896C6.06019 160.896 5.43619 160.599 5.05819 160.005C4.68619 159.411 4.50019 158.592 4.50019 157.548ZM8.11819 157.548C8.11819 157.104 8.08819 156.732 8.02819 156.432C7.97419 156.126 7.86019 155.877 7.68619 155.685C7.51819 155.493 7.26619 155.397 6.93019 155.397C6.59419 155.397 6.33919 155.493 6.16519 155.685C5.99719 155.877 5.88319 156.126 5.82319 156.432C5.76919 156.732 5.74219 157.104 5.74219 157.548C5.74219 158.004 5.76919 158.388 5.82319 158.7C5.87719 159.006 5.99119 159.255 6.16519 159.447C6.33919 159.633 6.59419 159.726 6.93019 159.726C7.26619 159.726 7.52119 159.633 7.69519 159.447C7.86919 159.255 7.98319 159.006 8.03719 158.7C8.09119 158.388 8.11819 158.004 8.11819 157.548ZM10.3186 157.548C10.3186 156.51 10.5046 155.697 10.8766 155.109C11.2546 154.521 11.8786 154.227 12.7486 154.227C13.6186 154.227 14.2396 154.521 14.6116 155.109C14.9896 155.697 15.1786 156.51 15.1786 157.548C15.1786 158.592 14.9896 159.411 14.6116 160.005C14.2396 160.599 13.6186 160.896 12.7486 160.896C11.8786 160.896 11.2546 160.599 10.8766 160.005C10.5046 159.411 10.3186 158.592 10.3186 157.548ZM13.9366 157.548C13.9366 157.104 13.9066 156.732 13.8466 156.432C13.7926 156.126 13.6786 155.877 13.5046 155.685C13.3366 155.493 13.0846 155.397 12.7486 155.397C12.4126 155.397 12.1576 155.493 11.9836 155.685C11.8156 155.877 11.7016 156.126 11.6416 156.432C11.5876 156.732 11.5606 157.104 11.5606 157.548C11.5606 158.004 11.5876 158.388 11.6416 158.7C11.6956 159.006 11.8096 159.255 11.9836 159.447C12.1576 159.633 12.4126 159.726 12.7486 159.726C13.0846 159.726 13.3396 159.633 13.5136 159.447C13.6876 159.255 13.8016 159.006 13.8556 158.7C13.9096 158.388 13.9366 158.004 13.9366 157.548Z" fill="#CBD5E0"/>
<path d="M1.63545 121.894C2.21145 121.414 2.67045 121.015 3.01245 120.697C3.35445 120.373 3.63945 120.037 3.86745 119.689C4.09545 119.341 4.20945 118.999 4.20945 118.663C4.20945 118.357 4.13745 118.117 3.99345 117.943C3.84945 117.769 3.62745 117.682 3.32745 117.682C3.02745 117.682 2.79645 117.784 2.63445 117.988C2.47245 118.186 2.38845 118.459 2.38245 118.807H1.15845C1.18245 118.087 1.39545 117.541 1.79745 117.169C2.20545 116.797 2.72145 116.611 3.34545 116.611C4.02945 116.611 4.55445 116.794 4.92045 117.16C5.28645 117.52 5.46945 117.997 5.46945 118.591C5.46945 119.059 5.34345 119.506 5.09145 119.932C4.83945 120.358 4.55145 120.73 4.22745 121.048C3.90345 121.36 3.48045 121.738 2.95845 122.182H5.61345V123.226H1.16745V122.29L1.63545 121.894ZM6.40742 119.95C6.40742 118.912 6.59342 118.099 6.96542 117.511C7.34342 116.923 7.96742 116.629 8.83742 116.629C9.70742 116.629 10.3284 116.923 10.7004 117.511C11.0784 118.099 11.2674 118.912 11.2674 119.95C11.2674 120.994 11.0784 121.813 10.7004 122.407C10.3284 123.001 9.70742 123.298 8.83742 123.298C7.96742 123.298 7.34342 123.001 6.96542 122.407C6.59342 121.813 6.40742 120.994 6.40742 119.95ZM10.0254 119.95C10.0254 119.506 9.99542 119.134 9.93542 118.834C9.88142 118.528 9.76742 118.279 9.59342 118.087C9.42542 117.895 9.17342 117.799 8.83742 117.799C8.50142 117.799 8.24642 117.895 8.07242 118.087C7.90442 118.279 7.79042 118.528 7.73042 118.834C7.67642 119.134 7.64942 119.506 7.64942 119.95C7.64942 120.406 7.67642 120.79 7.73042 121.102C7.78442 121.408 7.89842 121.657 8.07242 121.849C8.24642 122.035 8.50142 122.128 8.83742 122.128C9.17342 122.128 9.42842 122.035 9.60242 121.849C9.77642 121.657 9.89042 121.408 9.94442 121.102C9.99842 120.79 10.0254 120.406 10.0254 119.95ZM12.2258 119.95C12.2258 118.912 12.4118 118.099 12.7838 117.511C13.1618 116.923 13.7858 116.629 14.6558 116.629C15.5258 116.629 16.1468 116.923 16.5188 117.511C16.8968 118.099 17.0858 118.912 17.0858 119.95C17.0858 120.994 16.8968 121.813 16.5188 122.407C16.1468 123.001 15.5258 123.298 14.6558 123.298C13.7858 123.298 13.1618 123.001 12.7838 122.407C12.4118 121.813 12.2258 120.994 12.2258 119.95ZM15.8438 119.95C15.8438 119.506 15.8138 119.134 15.7538 118.834C15.6998 118.528 15.5858 118.279 15.4118 118.087C15.2438 117.895 14.9918 117.799 14.6558 117.799C14.3198 117.799 14.0648 117.895 13.8908 118.087C13.7228 118.279 13.6088 118.528 13.5488 118.834C13.4948 119.134 13.4678 119.506 13.4678 119.95C13.4678 120.406 13.4948 120.79 13.5488 121.102C13.6028 121.408 13.7168 121.657 13.8908 121.849C14.0648 122.035 14.3198 122.128 14.6558 122.128C14.9918 122.128 15.2468 122.035 15.4208 121.849C15.5948 121.657 15.7088 121.408 15.7628 121.102C15.8168 120.79 15.8438 120.406 15.8438 119.95Z" fill="#CBD5E0"/>
<path d="M1.25745 80.8857H2.49045C2.53545 80.4717 2.79645 80.0757 3.40845 80.0757C3.98445 80.0757 4.29945 80.3817 4.29945 80.8947C4.29945 81.5427 3.75945 81.7497 3.02145 81.7497H2.76045V82.7847H3.02145C3.95745 82.7847 4.42545 83.0547 4.42545 83.7927C4.42545 84.3147 4.10145 84.7107 3.47145 84.7107C2.79645 84.7107 2.41845 84.3057 2.39145 83.7387H1.16745C1.22145 85.1157 2.20245 85.7638 3.49845 85.7638C4.87545 85.7638 5.63145 84.9717 5.63145 83.9007C5.63145 83.0097 5.19045 82.4697 4.52445 82.2627V82.2267C5.00145 82.0647 5.51445 81.5607 5.51445 80.7417C5.51445 79.7697 4.79445 79.0047 3.44445 79.0047C2.18445 79.0047 1.32045 79.6707 1.25745 80.8857ZM6.62715 82.3527C6.62715 84.2697 7.20315 85.7007 9.05715 85.7007C10.9111 85.7007 11.4871 84.2697 11.4871 82.3527C11.4871 80.4537 10.9111 79.0317 9.05715 79.0317C7.20315 79.0317 6.62715 80.4537 6.62715 82.3527ZM10.2451 82.3527C10.2451 83.5227 10.1191 84.5308 9.05715 84.5308C7.99515 84.5308 7.86915 83.5227 7.86915 82.3527C7.86915 81.2277 7.99515 80.2017 9.05715 80.2017C10.1191 80.2017 10.2451 81.2277 10.2451 82.3527ZM12.4455 82.3527C12.4455 84.2697 13.0215 85.7007 14.8755 85.7007C16.7295 85.7007 17.3055 84.2697 17.3055 82.3527C17.3055 80.4537 16.7295 79.0317 14.8755 79.0317C13.0215 79.0317 12.4455 80.4537 12.4455 82.3527ZM16.0635 82.3527C16.0635 83.5227 15.9375 84.5308 14.8755 84.5308C13.8135 84.5308 13.6875 83.5227 13.6875 82.3527C13.6875 81.2277 13.8135 80.2017 14.8755 80.2017C15.9375 80.2017 16.0635 81.2277 16.0635 82.3527Z" fill="#CBD5E0"/>
<path d="M4.33545 48.1211H5.59545V46.8431H6.38745V45.7451H5.59545V41.6411H4.12845L1.18545 45.8531V46.8431H4.33545V48.1211ZM2.57145 45.7451L4.41645 42.9911V45.7451H2.57145ZM7.18965 44.7551C7.18965 46.6721 7.76565 48.1031 9.61965 48.1031C11.4736 48.1031 12.0496 46.6721 12.0496 44.7551C12.0496 42.8561 11.4736 41.4341 9.61965 41.4341C7.76565 41.4341 7.18965 42.8561 7.18965 44.7551ZM10.8076 44.7551C10.8076 45.9251 10.6816 46.9331 9.61965 46.9331C8.55765 46.9331 8.43165 45.9251 8.43165 44.7551C8.43165 43.6301 8.55765 42.6041 9.61965 42.6041C10.6816 42.6041 10.8076 43.6301 10.8076 44.7551ZM13.008 44.7551C13.008 46.6721 13.584 48.1031 15.438 48.1031C17.292 48.1031 17.868 46.6721 17.868 44.7551C17.868 42.8561 17.292 41.4341 15.438 41.4341C13.584 41.4341 13.008 42.8561 13.008 44.7551ZM16.626 44.7551C16.626 45.9251 16.5 46.9331 15.438 46.9331C14.376 46.9331 14.25 45.9251 14.25 44.7551C14.25 43.6301 14.376 42.6041 15.438 42.6041C16.5 42.6041 16.626 43.6301 16.626 44.7551Z" fill="#CBD5E0"/>
<path d="M1.58139 3.94053V7.79253H2.78739C2.92239 7.38753 3.25539 7.09953 3.77739 7.09953C4.48839 7.09953 4.85739 7.50453 4.85739 8.24253C4.85739 8.93553 4.52439 9.45753 3.78639 9.45753C3.17439 9.45753 2.80539 9.12453 2.69739 8.66553H1.47339C1.58139 9.73653 2.39139 10.5195 3.80439 10.5195C5.29839 10.5195 6.07239 9.56553 6.07239 8.22453C6.07239 7.20753 5.55039 6.05553 4.02039 6.05553C3.47139 6.05553 2.97639 6.28953 2.73339 6.58653V5.04753H5.64939V3.94053H1.58139ZM7.03138 7.15353C7.03138 9.07053 7.60738 10.5015 9.46138 10.5015C11.3154 10.5015 11.8914 9.07053 11.8914 7.15353C11.8914 5.25453 11.3154 3.83253 9.46138 3.83253C7.60738 3.83253 7.03138 5.25453 7.03138 7.15353ZM10.6494 7.15353C10.6494 8.32353 10.5234 9.33153 9.46138 9.33153C8.39938 9.33153 8.27338 8.32353 8.27338 7.15353C8.27338 6.02853 8.39938 5.00253 9.46138 5.00253C10.5234 5.00253 10.6494 6.02853 10.6494 7.15353ZM12.8497 7.15353C12.8497 9.07053 13.4257 10.5015 15.2797 10.5015C17.1337 10.5015 17.7097 9.07053 17.7097 7.15353C17.7097 5.25453 17.1337 3.83253 15.2797 3.83253C13.4257 3.83253 12.8497 5.25453 12.8497 7.15353ZM16.4677 7.15353C16.4677 8.32353 16.3417 9.33153 15.2797 9.33153C14.2177 9.33153 14.0917 8.32353 14.0917 7.15353C14.0917 6.02853 14.2177 5.00253 15.2797 5.00253C16.3417 5.00253 16.4677 6.02853 16.4677 7.15353Z" fill="#CBD5E0"/>
<line x1="23.7719" y1="193.66" x2="483.944" y2="193.66" stroke="#C7C7C7" stroke-linecap="round" stroke-linejoin="round" stroke-dasharray="3.5 3.5"/>
<line x1="23.7719" y1="156.059" x2="483.944" y2="156.059" stroke="#C7C7C7" stroke-linecap="round" stroke-linejoin="round" stroke-dasharray="3.5 3.5"/>
<line x1="23.7719" y1="118.461" x2="483.944" y2="118.461" stroke="#C7C7C7" stroke-linecap="round" stroke-linejoin="round" stroke-dasharray="3.5 3.5"/>
<line x1="23.7719" y1="80.8633" x2="483.944" y2="80.8633" stroke="#C7C7C7" stroke-linecap="round" stroke-linejoin="round" stroke-dasharray="3.5 3.5"/>
<line x1="23.7719" y1="43.2656" x2="483.944" y2="43.2657" stroke="#C7C7C7" stroke-linecap="round" stroke-linejoin="round" stroke-dasharray="3.5 3.5"/>
<line x1="23.7719" y1="5.66406" x2="483.944" y2="5.66412" stroke="#C7C7C7" stroke-linecap="round" stroke-linejoin="round" stroke-dasharray="3.5 3.5"/>
<path d="M85.8125 113.285C62.0553 103.443 34.22 117.386 23.272 125.587V193.779H483.895V32.4104C460.904 38.0402 441.374 36.5802 437.679 65.9804C434.665 89.9594 434.531 107.057 418.52 112.062C402.423 117.092 393.066 87.6657 376.918 65.9804C363.999 48.6323 342.242 71.2068 334.213 78.4352C319.981 91.0154 287.626 63.5673 273.605 41.991C253.584 11.1825 227.254 8.36467 207.369 41.991C187.484 75.6173 167.76 48.0484 142.99 65.9804C118.221 83.9124 115.509 125.587 85.8125 113.285Z" fill="url(#paint0_linear_430_4585)"/>
<path d="M23.272 125.725C34.22 117.513 62.0553 103.553 85.8125 113.407C115.509 125.725 118.221 83.9971 142.99 66.0421C167.76 48.0871 187.484 75.6913 207.369 42.022C227.254 8.35257 253.584 11.174 273.605 42.022C287.626 63.6259 319.981 91.1091 334.213 78.5128C342.242 71.2752 363.999 48.6717 376.917 66.0421C393.066 87.7551 402.423 117.22 418.52 112.182C434.531 107.172 434.665 90.0517 437.679 66.0421C441.374 36.6043 460.904 38.0661 483.895 32.429" stroke="#00AC63" stroke-width="1.5"/>
<defs>
<linearGradient id="paint0_linear_430_4585" x1="253.584" y1="17.8164" x2="253.584" y2="193.779" gradientUnits="userSpaceOnUse">
<stop stop-color="#00E383" stop-opacity="0.54"/>
<stop offset="1" stop-color="#9DFCD4" stop-opacity="0"/>
</linearGradient>
</defs>
</svg>
