<svg width="35" height="35" viewBox="0 0 35 35" fill="none" xmlns="http://www.w3.org/2000/svg">
<path d="M10.8989 30.0001H8.86624C8.64078 30.0001 8.44071 29.8549 8.37165 29.6401L6.94278 25.2193C6.88489 25.0405 6.92805 24.844 7.05601 24.7059C7.18398 24.5678 7.37643 24.5094 7.55872 24.5536C7.78976 24.6094 8.03655 24.6374 8.29194 24.6374H9.49892C9.72438 24.6374 9.92394 24.7826 9.9935 24.9974L11.3935 29.3196C11.4447 29.4781 11.4173 29.6512 11.3193 29.7858C11.2213 29.9203 11.0654 30.0001 10.8989 30.0001L10.8989 30.0001ZM9.24451 28.9601H10.1839L9.12063 25.6773H8.29193C8.25537 25.6773 8.21932 25.6768 8.18326 25.6758L9.24451 28.9601Z" fill="#3F4765" stroke="#3F4765" stroke-width="0.5"/>
<path d="M19.7377 29.5906C19.6026 29.5906 19.4695 29.5378 19.37 29.4383C16.9398 27.008 13.7133 25.6715 10.281 25.6715C9.99356 25.6715 9.76099 25.439 9.76099 25.1516V17.6074C9.76099 17.32 9.99356 17.0875 10.281 17.0875C13.6658 17.0875 16.9788 15.7159 19.37 13.3243C19.5193 13.1755 19.7422 13.1309 19.9367 13.2116C20.1307 13.2918 20.2576 13.4817 20.2576 13.692V29.0707C20.2576 29.2809 20.1312 29.4708 19.9367 29.5511C19.8722 29.578 19.8047 29.5907 19.7377 29.5907L19.7377 29.5906ZM10.8013 24.6413C13.9156 24.755 16.8505 25.8904 19.2177 27.887V14.8722C16.8646 16.8424 13.8758 17.9996 10.8013 18.1175V24.6413Z" fill="#3F4765" stroke="#3F4765" stroke-width="0.5"/>
<path d="M10.2814 25.6778H8.29341C5.92716 25.6778 4.00165 23.7523 4.00165 21.386C4.00165 19.0193 5.92716 17.0938 8.29341 17.0938H10.2814C10.5688 17.0938 10.8014 17.3263 10.8014 17.6137V25.1578C10.8014 25.4452 10.5688 25.6778 10.2814 25.6778ZM8.29341 18.1337C6.50043 18.1337 5.04159 19.5925 5.04159 21.386C5.04159 23.179 6.50043 24.6379 8.29341 24.6379H9.76142V18.1337H8.29341Z" fill="#3F4765" stroke="#3F4765" stroke-width="0.5"/>
<path d="M19.7377 24.0787C19.4503 24.0787 19.2177 23.8462 19.2177 23.5588V18.6958C19.2177 18.4083 19.4503 18.1758 19.7377 18.1758C21.3651 18.1758 22.6894 19.5001 22.6894 21.1275C22.6894 22.755 21.3651 24.0787 19.7377 24.0787ZM20.2577 19.2873V22.9672C21.06 22.7402 21.6495 22.0014 21.6495 21.1275C21.6495 20.2536 21.06 19.5148 20.2577 19.2873Z" fill="#3F4765"/>
<path d="M21.7129 14.7574C21.5966 14.7574 21.4808 14.7183 21.3859 14.6416C21.2229 14.5096 21.1549 14.2923 21.2143 14.0907L21.8779 11.8306C21.0843 10.9679 20.6511 9.85831 20.6511 8.67212C20.6511 6.09613 22.7493 4 25.3278 4C27.9038 4 29.9999 6.09613 29.9999 8.67212C29.9999 11.2507 27.9038 13.3488 25.3278 13.3488C24.9251 13.3488 24.5291 13.2975 24.1452 13.1965C23.1403 14.051 22.012 14.667 21.9607 14.6944C21.8831 14.7366 21.7977 14.7574 21.7129 14.7574L21.7129 14.7574ZM25.3278 5.0398C23.3225 5.0398 21.6911 6.66925 21.6911 8.67198C21.6911 9.6789 22.0922 10.6148 22.8209 11.3074C22.9626 11.4414 23.0169 11.6435 22.9616 11.8309L22.5975 13.0709C22.9443 12.8307 23.3246 12.5433 23.6694 12.2305C23.8095 12.1041 24.0071 12.064 24.1848 12.1234C24.5504 12.2462 24.9353 12.3087 25.3278 12.3087C27.3305 12.3087 28.96 10.6772 28.96 8.67198C28.96 6.66931 27.3305 5.03979 25.3278 5.03979L25.3278 5.0398Z" fill="#3F4765" stroke="#3F4765" stroke-width="0.5"/>
</svg>
