<svg width="52" height="56" viewBox="0 0 52 56" fill="none" xmlns="http://www.w3.org/2000/svg">
<g filter="url(#filter0_d_252_1260)">
<path fill-rule="evenodd" clip-rule="evenodd" d="M33.2178 18.6713C31.8306 17.3268 30.6267 16.0312 28.0784 15.8968C26.025 15.8112 25.0839 17.0579 23.1894 17.119C21.3989 17.1618 21.5333 15.7318 17.8239 16.1351C14.6033 16.4896 11.7922 19.7101 12.0122 24.2202C12.2383 29.1091 15.6361 35.8313 18.8078 35.8313C21.0444 35.7824 21.5761 34.713 23.4094 34.713C25.6889 34.713 26.2267 36.0513 28.0111 35.7824C31.0973 35.3363 34.0001 30.4657 34.0001 28.9013C32.3012 28.0091 30.6084 26.4874 30.3823 23.9452C30.1561 21.4029 31.7451 19.7835 33.2178 18.6713Z" fill="#1D1D1B"/>
<path fill-rule="evenodd" clip-rule="evenodd" d="M22.5352 16.2578C22.4435 14.7441 22.9343 13.2527 23.9069 12.0892C24.8795 10.9257 26.2603 10.1782 27.7663 10C28.2552 13.0006 25.7802 16.435 22.5352 16.2578Z" fill="#1D1D1B"/>
</g>
<defs>
<filter id="filter0_d_252_1260" x="6.10352e-05" y="0" width="52" height="55.8311" filterUnits="userSpaceOnUse" color-interpolation-filters="sRGB">
<feFlood flood-opacity="0" result="BackgroundImageFix"/>
<feColorMatrix in="SourceAlpha" type="matrix" values="0 0 0 0 0 0 0 0 0 0 0 0 0 0 0 0 0 0 127 0" result="hardAlpha"/>
<feOffset dx="3" dy="5"/>
<feGaussianBlur stdDeviation="7.5"/>
<feComposite in2="hardAlpha" operator="out"/>
<feColorMatrix type="matrix" values="0 0 0 0 0 0 0 0 0 0 0 0 0 0 0 0 0 0 0.08 0"/>
<feBlend mode="normal" in2="BackgroundImageFix" result="effect1_dropShadow_252_1260"/>
<feBlend mode="normal" in="SourceGraphic" in2="effect1_dropShadow_252_1260" result="shape"/>
</filter>
</defs>
</svg>
