<svg width="35" height="35" viewBox="0 0 35 35" fill="none" xmlns="http://www.w3.org/2000/svg">
<path d="M25.1805 19.7173C25.0343 19.5214 24.9582 19.2821 24.9644 19.0378C24.9706 18.7935 25.0587 18.5583 25.2146 18.37C26.6083 16.6883 29.9625 12.2625 29.9996 8.55523C30.0492 3.90954 25.1247 4.98424 23.7496 5.43952L23.6846 5.46739C23.2603 5.65632 18.9026 7.63539 16.5085 10.0419C16.3744 10.1693 16.1964 10.2404 16.0114 10.2404C15.8264 10.2404 15.6485 10.1693 15.5143 10.0419C14.5285 9.16606 13.3032 8.60517 11.996 8.43135C11.8328 8.40783 11.6665 8.44116 11.5249 8.52575C11.3834 8.61034 11.2752 8.74104 11.2186 8.89592V8.9145C11.1923 8.9932 11.1828 9.07657 11.1907 9.15918C11.2341 9.73834 11.2558 12.7549 7.68479 17.2953C7.6717 17.3106 7.66028 17.3272 7.65072 17.3449C7.4556 17.6546 5.79244 20.5009 6.02163 22.418C6.25082 24.3351 7.51755 27.3362 11.6336 28.7702C12.4613 29.0581 13.3571 29.0862 14.2012 28.8507C15.3997 28.5162 17.2983 27.7451 19.6459 25.9704C20.4971 25.3249 21.4356 24.8035 22.4333 24.4218C23.4729 23.9816 24.6034 23.7988 25.7287 23.8891C25.8945 23.9163 26.0648 23.8903 26.2149 23.8148C26.4565 23.6909 26.7229 23.4153 26.5959 22.8144C26.367 21.6874 25.8828 20.6279 25.1805 19.7173ZM25.7194 6.77748C28.4077 6.25407 28.5068 8.18668 28.1444 9.81887C27.928 10.7936 27.5613 11.7288 27.0574 12.5908C26.1282 14.192 23.9354 17.89 23.1921 18.144C23.1921 18.144 21.3122 16.9423 17.8341 17.317C17.8341 17.317 18.085 13.9876 16.9328 11.9869C16.9328 11.9869 21.2378 7.65397 25.7194 6.77748ZM10.7076 15.7406C12.0579 14.192 12.8105 10.4352 12.8105 10.4352C12.8105 10.4352 16.4652 11.4511 16.1802 17.4936L8.05645 20.3491C8.05645 20.3491 9.35415 17.2768 10.7076 15.7406ZM18.085 24.905C14.3034 27.6336 12.25 28.3583 9.57094 25.6545C9.57094 25.6545 7.74364 24.0781 7.84584 22.3499C7.84584 22.3499 14.8794 19.2527 17.3076 19.1474C19.7357 19.0421 22.5417 18.5466 24.5177 22.0742C24.5177 22.0742 21.8635 22.1764 18.085 24.905Z" fill="#3F4765"/>
<path d="M21.4578 11.9097C21.9641 11.9097 22.3745 11.4992 22.3745 10.9929C22.3745 10.4866 21.9641 10.0762 21.4578 10.0762C20.9514 10.0762 20.541 10.4866 20.541 10.9929C20.541 11.4992 20.9514 11.9097 21.4578 11.9097Z" fill="#3F4765"/>
<path d="M24.9203 11.0513C25.4266 11.0513 25.8371 10.6408 25.8371 10.1345C25.8371 9.62821 25.4266 9.21777 24.9203 9.21777C24.414 9.21777 24.0036 9.62821 24.0036 10.1345C24.0036 10.6408 24.414 11.0513 24.9203 11.0513Z" fill="#3F4765"/>
<path d="M24.0439 14.4898C24.5502 14.4898 24.9606 14.0793 24.9606 13.573C24.9606 13.0667 24.5502 12.6562 24.0439 12.6562C23.5376 12.6562 23.1271 13.0667 23.1271 13.573C23.1271 14.0793 23.5376 14.4898 24.0439 14.4898Z" fill="#3F4765"/>
<path d="M20.5905 15.3159C21.0968 15.3159 21.5073 14.9055 21.5073 14.3992C21.5073 13.8929 21.0968 13.4824 20.5905 13.4824C20.0842 13.4824 19.6738 13.8929 19.6738 14.3992C19.6738 14.9055 20.0842 15.3159 20.5905 15.3159Z" fill="#3F4765"/>
</svg>
