<svg width="24" height="24" viewBox="0 0 24 24" fill="none" xmlns="http://www.w3.org/2000/svg">
<path d="M16.601 10.601C16.933 10.2691 16.933 9.7309 16.601 9.39896C16.2691 9.06701 15.7309 9.06701 15.399 9.39896L16.601 10.601ZM12 14L11.399 14.601C11.7309 14.933 12.2691 14.933 12.601 14.601L12 14ZM8.60104 9.39896C8.2691 9.06701 7.7309 9.06701 7.39896 9.39896C7.06701 9.7309 7.06701 10.2691 7.39896 10.601L8.60104 9.39896ZM15.399 9.39896L11.399 13.399L12.601 14.601L16.601 10.601L15.399 9.39896ZM12.601 13.399L8.60104 9.39896L7.39896 10.601L11.399 14.601L12.601 13.399Z" fill="#3F4765"/>
</svg>
