<svg width="24" height="24" viewBox="0 0 24 24" fill="none" xmlns="http://www.w3.org/2000/svg">
<path d="M21.1992 10.1304C21.1427 10.0356 21.0581 9.96067 20.9571 9.91613L16.8214 8.10543V4.05976C16.8262 3.90575 16.7786 3.75467 16.6864 3.63119L16.6607 3.5969C16.6118 3.54345 16.5522 3.50093 16.4857 3.47213C16.4192 3.44332 16.3474 3.42889 16.275 3.42976H8.47293C8.31371 3.42726 8.15985 3.48727 8.04436 3.5969L8.01007 3.63119C7.90075 3.75782 7.84199 3.92034 7.84507 4.08761V8.11829L3.66226 9.89685C3.59204 9.92877 3.53261 9.98039 3.49115 10.0454C3.44969 10.1105 3.42799 10.1861 3.42869 10.2633V18.2132C3.42563 18.5082 3.49352 18.7996 3.62666 19.0629C3.75979 19.3262 3.95426 19.5536 4.19368 19.726C4.23651 19.7568 4.28085 19.7854 4.32654 19.8118C4.61002 19.9722 4.93082 20.055 5.25653 20.0518H19.4507C19.9271 20.0568 20.3873 19.8789 20.7364 19.5546L20.7899 19.501C21.0936 19.1791 21.261 18.7522 21.2571 18.3096V10.3083C21.2544 10.2448 21.2344 10.1833 21.1992 10.1304ZM16.8128 9.54971L18.9085 10.5311L16.8128 11.4783V9.54971ZM9.12221 4.77761H15.4864V12.1211L12.3472 13.5268L9.12221 12.1211V4.77761ZM7.85579 9.54971V11.4783L5.7601 10.5183L7.85579 9.54971ZM20.0057 18.3353C20.0013 18.4124 19.9774 18.4871 19.9361 18.5523C19.8949 18.6175 19.8377 18.6712 19.77 18.7082C19.6733 18.7628 19.5639 18.7909 19.4528 18.7896H5.24153C5.16653 18.7921 5.09186 18.7787 5.02243 18.7503C4.95299 18.7218 4.89037 18.679 4.83867 18.6246C4.73971 18.5174 4.68597 18.3762 4.68868 18.2303V11.4783L12.12 14.9839C12.2814 15.0326 12.4536 15.0326 12.615 14.9839L20.0057 11.5725V18.3353Z" fill="white"/>
<path d="M13.7657 7.91489H11.7107V7.28489H13.6778C13.8438 7.28972 14.0048 7.22843 14.1256 7.11451C14.2463 7.00058 14.3169 6.84335 14.3217 6.6774C14.3266 6.51145 14.2653 6.35038 14.1513 6.22962C14.0374 6.10886 13.8802 6.03831 13.7142 6.03348C13.6907 6.03136 13.6671 6.03136 13.6435 6.03348H12.9835V5.39062H11.7235V6.03348H10.9286C10.8176 6.05156 10.7144 6.10181 10.6318 6.17799C10.5491 6.25417 10.4906 6.35294 10.4636 6.46204V8.73774C10.5171 9.20273 11.0228 9.1813 11.0228 9.1813H12.9857V9.80916H11.0228C10.8907 9.8067 10.7626 9.85501 10.665 9.94415C10.556 10.0172 10.472 10.1219 10.4242 10.2441C10.3765 10.3663 10.3672 10.5002 10.3978 10.6278C10.4284 10.7554 10.4972 10.8706 10.5952 10.9579C10.6931 11.0453 10.8154 11.1005 10.9457 11.1163C10.9706 11.1185 10.9957 11.1185 11.0207 11.1163H11.7235V11.7591H12.9878V11.0841H13.8664C13.9867 11.0656 14.0963 11.0042 14.1751 10.9113C14.2538 10.8184 14.2964 10.7002 14.2949 10.5784V8.47631C14.2049 7.86989 13.7657 7.91489 13.7657 7.91489Z" fill="white"/>
</svg>
