<svg width="26" height="26" viewBox="0 0 26 26" fill="none" xmlns="http://www.w3.org/2000/svg">
<path d="M4.66675 21.332H21.3334" stroke="white" stroke-width="2" stroke-linecap="round" stroke-linejoin="round"/>
<path d="M8.83342 21.3329V22.3329C9.09863 22.3329 9.35299 22.2275 9.54052 22.04L8.83342 21.3329ZM4.66675 21.3329H3.66675C3.66675 21.8851 4.11446 22.3329 4.66675 22.3329V21.3329ZM4.66675 17.1662L3.95964 16.4591C3.7721 16.6466 3.66675 16.901 3.66675 17.1662H4.66675ZM16.4302 5.40275L17.1373 6.10986L17.1373 6.10986L16.4302 5.40275ZM17.9033 5.40275L17.1962 6.10986L17.1962 6.10986L17.9033 5.40275ZM20.5968 8.09628L21.304 7.38918V7.38917L20.5968 8.09628ZM20.5968 9.56942L19.8897 8.86231L20.5968 9.56942ZM8.83342 20.3329H4.66675V22.3329H8.83342V20.3329ZM5.66675 21.3329V17.1662H3.66675V21.3329H5.66675ZM5.37385 17.8733L17.1373 6.10986L15.7231 4.69565L3.95964 16.4591L5.37385 17.8733ZM17.1962 6.10986L19.8897 8.80339L21.304 7.38917L18.6104 4.69565L17.1962 6.10986ZM19.8897 8.86231L8.12631 20.6257L9.54052 22.04L21.304 10.2765L19.8897 8.86231ZM19.8897 8.80339C19.906 8.81966 19.906 8.84604 19.8897 8.86231L21.304 10.2765C22.1013 9.47921 22.1013 8.1865 21.304 7.38918L19.8897 8.80339ZM17.1373 6.10986C17.1536 6.09359 17.1799 6.09359 17.1962 6.10986L18.6104 4.69565C17.8131 3.89833 16.5204 3.89833 15.7231 4.69565L17.1373 6.10986Z" fill="white"/>
<path d="M13 8.83203L17.1667 12.9987" stroke="white" stroke-width="2" stroke-linecap="round" stroke-linejoin="round"/>
</svg>
