<svg width="24" height="24" viewBox="0 0 24 24" fill="none" xmlns="http://www.w3.org/2000/svg">
<path d="M4 20H20" stroke="#00AC63" stroke-width="1.5" stroke-linecap="round" stroke-linejoin="round"/>
<path d="M8 19.9998V20.7498C8.19891 20.7498 8.38968 20.6708 8.53033 20.5302L8 19.9998ZM4 19.9998H3.25C3.25 20.4141 3.58579 20.7498 4 20.7498V19.9998ZM4 15.9998L3.46967 15.4695C3.32902 15.6102 3.25 15.8009 3.25 15.9998H4ZM15.2929 4.70696L15.8232 5.23729L15.8232 5.23729L15.2929 4.70696ZM16.7071 4.70696L16.1768 5.23729L16.1768 5.23729L16.7071 4.70696ZM19.2929 7.29274L19.8232 6.76241L19.8232 6.76241L19.2929 7.29274ZM19.2929 8.70696L18.7626 8.17663L19.2929 8.70696ZM8 19.2498H4V20.7498H8V19.2498ZM4.75 19.9998V15.9998H3.25V19.9998H4.75ZM4.53033 16.5302L15.8232 5.23729L14.7626 4.17663L3.46967 15.4695L4.53033 16.5302ZM16.1768 5.23729L18.7626 7.82307L19.8232 6.76241L17.2374 4.17663L16.1768 5.23729ZM18.7626 8.17663L7.46967 19.4695L8.53033 20.5302L19.8232 9.23729L18.7626 8.17663ZM18.7626 7.82307C18.8602 7.9207 18.8602 8.07899 18.7626 8.17663L19.8232 9.23729C20.5066 8.55387 20.5066 7.44583 19.8232 6.76241L18.7626 7.82307ZM15.8232 5.23729C15.9209 5.13965 16.0791 5.13965 16.1768 5.23729L17.2374 4.17663C16.554 3.49321 15.446 3.49321 14.7626 4.17663L15.8232 5.23729Z" fill="#00AC63"/>
<path d="M12 8L16 12" stroke="#00AC63" stroke-width="1.5" stroke-linecap="round" stroke-linejoin="round"/>
</svg>
