<svg width="52" height="53" viewBox="0 0 52 53" fill="none" xmlns="http://www.w3.org/2000/svg">
<g filter="url(#filter0_d_252_1272)">
<path d="M31.0353 10H14.9647C14.1784 10 13.4243 10.3213 12.8683 10.8932C12.3123 11.4652 12 12.2408 12 13.0497V29.5837C12.0012 30.3917 12.3141 31.1662 12.87 31.7371C13.4258 32.3079 14.1792 32.6286 14.9647 32.6286H22.8907L22.9041 24.5418H20.8618C20.7986 24.5419 20.736 24.5292 20.6776 24.5044C20.6192 24.4796 20.5662 24.4432 20.5214 24.3974C20.4767 24.3515 20.4412 24.297 20.417 24.237C20.3927 24.177 20.3802 24.1127 20.3801 24.0477L20.37 21.4409C20.3697 21.3757 20.382 21.311 20.4061 21.2507C20.4302 21.1903 20.4656 21.1355 20.5104 21.0892C20.5551 21.043 20.6083 21.0063 20.6669 20.9813C20.7254 20.9563 20.7882 20.9434 20.8517 20.9434H22.8907V18.4245C22.8907 15.5014 24.6263 13.9098 27.1611 13.9098H29.2412C29.369 13.91 29.4916 13.9623 29.582 14.0554C29.6725 14.1484 29.7233 14.2745 29.7235 14.406V16.6038C29.7233 16.7352 29.6725 16.8611 29.5822 16.954C29.4919 17.0468 29.3695 17.0991 29.2418 17.0993H27.9637C26.5853 17.0993 26.3182 17.7733 26.3182 18.7601V20.9406H29.3454C29.4135 20.9406 29.4807 20.9554 29.5428 20.9841C29.6048 21.0128 29.6602 21.0546 29.7054 21.1069C29.7506 21.1592 29.7845 21.2208 29.8049 21.2875C29.8253 21.3543 29.8317 21.4247 29.8237 21.4942L29.523 24.101C29.5092 24.2215 29.4529 24.3326 29.3647 24.4132C29.2765 24.4938 29.1627 24.5383 29.0447 24.5383H26.333L26.3195 32.6286H31.0353C31.8208 32.6286 32.5742 32.3079 33.13 31.7371C33.6859 31.1662 33.9988 30.3917 34 29.5837V13.0497C34 12.2408 33.6877 11.4652 33.1317 10.8932C32.5757 10.3213 31.8216 10 31.0353 10Z" fill="#475993"/>
</g>
<defs>
<filter id="filter0_d_252_1272" x="0" y="0" width="52" height="52.6289" filterUnits="userSpaceOnUse" color-interpolation-filters="sRGB">
<feFlood flood-opacity="0" result="BackgroundImageFix"/>
<feColorMatrix in="SourceAlpha" type="matrix" values="0 0 0 0 0 0 0 0 0 0 0 0 0 0 0 0 0 0 127 0" result="hardAlpha"/>
<feOffset dx="3" dy="5"/>
<feGaussianBlur stdDeviation="7.5"/>
<feComposite in2="hardAlpha" operator="out"/>
<feColorMatrix type="matrix" values="0 0 0 0 0 0 0 0 0 0 0 0 0 0 0 0 0 0 0.08 0"/>
<feBlend mode="normal" in2="BackgroundImageFix" result="effect1_dropShadow_252_1272"/>
<feBlend mode="normal" in="SourceGraphic" in2="effect1_dropShadow_252_1272" result="shape"/>
</filter>
</defs>
</svg>
