<svg width="35" height="35" viewBox="0 0 35 35" fill="none" xmlns="http://www.w3.org/2000/svg">
<path d="M17.176 17.2215C17.288 16.9262 17.7118 16.9262 17.8241 17.2215L18.5486 19.2284C18.5739 19.2937 18.6184 19.3499 18.6762 19.3894C18.7341 19.429 18.8026 19.4501 18.8727 19.4499H20.6531C20.982 19.4499 21.1255 19.8594 20.8669 20.0599L19.5999 21.1998C19.5432 21.2434 19.5017 21.3039 19.4815 21.3726C19.4612 21.4412 19.4633 21.5146 19.4873 21.582L19.9499 23.543C20.0626 23.8579 19.6979 24.1285 19.4222 23.9346L17.7013 22.8426C17.6424 22.8012 17.5721 22.779 17.5 22.779C17.428 22.779 17.3577 22.8012 17.2988 22.8426L15.5779 23.9346C15.3025 24.1285 14.9375 23.8576 15.0502 23.543L15.5128 21.582C15.5368 21.5146 15.5389 21.4412 15.5186 21.3726C15.4984 21.3039 15.4569 21.2434 15.4001 21.1998L14.1332 20.0599C13.8742 19.8594 14.0184 19.4499 14.3467 19.4499H16.1271C16.1972 19.4501 16.2657 19.4291 16.3235 19.3895C16.3814 19.3499 16.4259 19.2938 16.4511 19.2284L17.1756 17.2215H17.176Z" stroke="#3F4765" stroke-width="1.3" stroke-linecap="round" stroke-linejoin="round"/>
<path d="M26.4729 11.668H8.52706C7.81417 11.668 7.20577 12.1834 7.08857 12.8866L4.65801 27.4699C4.50986 28.3588 5.19534 29.168 6.0965 29.168H28.9035C29.8047 29.168 30.4901 28.3588 30.342 27.4699L27.9114 12.8866C27.7942 12.1834 27.1858 11.668 26.4729 11.668Z" stroke="#3F4765" stroke-width="1.7" stroke-linecap="round" stroke-linejoin="round"/>
<path d="M11.6667 11.6654C11.6667 8.4437 14.2783 5.83203 17.5 5.83203C20.7217 5.83203 23.3333 8.4437 23.3333 11.6654" stroke="#3F4765" stroke-width="1.7" stroke-linecap="round" stroke-linejoin="round"/>
</svg>
