<svg width="218" height="209" viewBox="0 0 218 209" fill="none" xmlns="http://www.w3.org/2000/svg">
<g clip-path="url(#clip0_252_1624)">
<path d="M153.505 14.9918L218 0L172.67 24.9842L153.505 14.9918Z" fill="#019D5B"/>
<path d="M218 0L203.577 43.7972L180.289 29.0007L218 0Z" fill="url(#paint0_linear_252_1624)"/>
<path d="M172.67 24.9842L175.344 43.7972L180.289 29.0007L218 0L172.67 24.9842Z" fill="#072D1D"/>
<path d="M175.345 43.7975L189.35 34.7555L180.289 29.001L175.345 43.7975Z" fill="#007D48"/>
<path d="M64.0384 208.681C29.5436 208.179 -19.9874 135.85 51.6443 117.734C123.276 99.6174 68.9309 179.055 39.5045 140.218C10.0782 101.382 57.8348 72.101 106.479 77.9141C155.122 83.7273 170.158 46.6221 170.158 46.6221" stroke="#00AC63" stroke-miterlimit="10" stroke-dasharray="12 12"/>
<path d="M158.169 83.0567L192.194 75.1475L168.28 88.3296L158.169 83.0567Z" fill="url(#paint1_linear_252_1624)"/>
<path d="M192.194 75.1475L184.582 98.2503L172.298 90.4452L192.194 75.1475Z" fill="url(#paint2_linear_252_1624)"/>
<path d="M168.28 88.3296L169.689 98.2503L172.298 90.4452L192.194 75.1475L168.28 88.3296Z" fill="#072D1D"/>
<path d="M169.689 98.2504L177.08 93.4788L172.298 90.4453L169.689 98.2504Z" fill="#007D48"/>
<path d="M138.051 153.498L172.076 145.596L148.162 158.771L138.051 153.498Z" fill="url(#paint3_linear_252_1624)"/>
<path d="M172.076 145.596L164.47 168.692L152.187 160.893L172.076 145.596Z" fill="url(#paint4_linear_252_1624)"/>
<path d="M148.162 158.771L149.578 168.692L152.187 160.893L172.076 145.596L148.162 158.771Z" fill="#072D1D"/>
<path d="M149.578 168.692L156.962 163.927L152.187 160.894L149.578 168.692Z" fill="#007D48"/>
<path d="M0 62.9356L34.0252 55.0264L10.111 68.2085L0 62.9356Z" fill="url(#paint5_linear_252_1624)"/>
<path d="M34.0253 55.0264L26.4126 78.1292L14.1294 70.3241L34.0253 55.0264Z" fill="url(#paint6_linear_252_1624)"/>
<path d="M10.1108 68.2085L11.5199 78.1292L14.1292 70.3241L34.025 55.0264L10.1108 68.2085Z" fill="#072D1D"/>
<path d="M11.52 78.1293L18.9108 73.3642L14.1293 70.3242L11.52 78.1293Z" fill="#007D48"/>
<path d="M89.1855 34.8985L123.211 26.9893L99.2966 40.1714L89.1855 34.8985Z" fill="url(#paint7_linear_252_1624)"/>
<path d="M123.211 26.9893L115.605 50.0921L103.321 42.287L123.211 26.9893Z" fill="url(#paint8_linear_252_1624)"/>
<path d="M99.2969 40.1714L100.712 50.0921L103.322 42.287L123.211 26.9893L99.2969 40.1714Z" fill="#072D1D"/>
<path d="M100.712 50.0922L108.097 45.3271L103.322 42.2871L100.712 50.0922Z" fill="#007D48"/>
</g>
<defs>
<linearGradient id="paint0_linear_252_1624" x1="218" y1="21.8986" x2="180.289" y2="21.8986" gradientUnits="userSpaceOnUse">
<stop stop-color="#00AC63"/>
<stop offset="0.27" stop-color="#00AC63"/>
<stop offset="0.67" stop-color="#00AC63"/>
<stop offset="1" stop-color="#00AC63"/>
</linearGradient>
<linearGradient id="paint1_linear_252_1624" x1="192.188" y1="81.7418" x2="158.169" y2="81.7418" gradientUnits="userSpaceOnUse">
<stop stop-color="#00AC63"/>
<stop offset="0.27" stop-color="#00AC63"/>
<stop offset="0.67" stop-color="#00AC63"/>
<stop offset="1" stop-color="#03A560"/>
</linearGradient>
<linearGradient id="paint2_linear_252_1624" x1="192.188" y1="86.7021" x2="172.298" y2="86.7021" gradientUnits="userSpaceOnUse">
<stop stop-color="#00AC63"/>
<stop offset="0.27" stop-color="#00AC63"/>
<stop offset="0.67" stop-color="#00AC63"/>
<stop offset="1" stop-color="#00AC63"/>
</linearGradient>
<linearGradient id="paint3_linear_252_1624" x1="172.076" y1="152.184" x2="138.051" y2="152.184" gradientUnits="userSpaceOnUse">
<stop stop-color="#00AC63"/>
<stop offset="0.27" stop-color="#00AC63"/>
<stop offset="0.67" stop-color="#00AC63"/>
<stop offset="1" stop-color="#00AC63"/>
</linearGradient>
<linearGradient id="paint4_linear_252_1624" x1="172.076" y1="157.144" x2="152.187" y2="157.144" gradientUnits="userSpaceOnUse">
<stop stop-color="#00AC63"/>
<stop offset="0.27" stop-color="#00AC63"/>
<stop offset="0.67" stop-color="#00AC63"/>
<stop offset="1" stop-color="#01A35E"/>
</linearGradient>
<linearGradient id="paint5_linear_252_1624" x1="34.0187" y1="61.6207" x2="0" y2="61.6207" gradientUnits="userSpaceOnUse">
<stop stop-color="#00AC63"/>
<stop offset="0.27" stop-color="#00AC63"/>
<stop offset="0.67" stop-color="#00AC63"/>
<stop offset="1" stop-color="#03A560"/>
</linearGradient>
<linearGradient id="paint6_linear_252_1624" x1="34.0187" y1="66.5811" x2="14.1294" y2="66.5811" gradientUnits="userSpaceOnUse">
<stop stop-color="#00AC63"/>
<stop offset="0.27" stop-color="#00AC63"/>
<stop offset="0.67" stop-color="#00AC63"/>
<stop offset="1" stop-color="#00AC63"/>
</linearGradient>
<linearGradient id="paint7_linear_252_1624" x1="123.211" y1="33.5836" x2="89.1855" y2="33.5836" gradientUnits="userSpaceOnUse">
<stop stop-color="#00AC63"/>
<stop offset="0.27" stop-color="#00AC63"/>
<stop offset="0.67" stop-color="#00AC63"/>
<stop offset="1" stop-color="#03A25E"/>
</linearGradient>
<linearGradient id="paint8_linear_252_1624" x1="123.211" y1="38.5439" x2="103.321" y2="38.5439" gradientUnits="userSpaceOnUse">
<stop stop-color="#02C572"/>
<stop offset="0.27" stop-color="#00AC63"/>
<stop offset="0.67" stop-color="#03A560"/>
<stop offset="1" stop-color="#039E5C"/>
</linearGradient>
<clipPath id="clip0_252_1624">
<rect width="218" height="209" fill="white"/>
</clipPath>
</defs>
</svg>
