<svg width="52" height="52" viewBox="0 0 52 52" fill="none" xmlns="http://www.w3.org/2000/svg">
<g filter="url(#filter0_d_252_1265)">
<path fill-rule="evenodd" clip-rule="evenodd" d="M13.2125 16.0632C13.6774 15.0907 14.3072 14.2026 15.075 13.4365C16.7912 11.6783 18.8702 10.5427 21.3297 10.1626C24.7787 9.62282 27.8555 10.4191 30.5184 12.667C30.6873 12.8092 30.7289 12.892 30.5458 13.068C29.605 13.9704 28.6797 14.8868 27.7497 15.7986C27.6545 15.8918 27.5903 16.0061 27.4202 15.8545C25.0761 13.7478 21.2488 13.7722 18.7572 16.0434C17.9177 16.8122 17.2789 17.7674 16.8947 18.8287C16.8364 18.7914 16.7758 18.7588 16.721 18.7121C15.5507 17.8315 14.3812 16.9485 13.2125 16.0632Z" fill="#D7282A"/>
<path fill-rule="evenodd" clip-rule="evenodd" d="M16.8676 23.126C17.2042 23.9619 17.6217 24.7582 18.2425 25.4251C19.8203 27.1351 21.7799 27.8712 24.1213 27.6333C25.1907 27.5176 26.2194 27.1661 27.1303 26.605C27.2195 26.6831 27.304 26.7659 27.3979 26.8382C28.4826 27.6683 29.5685 28.4976 30.6555 29.3262C29.4783 30.4228 28.0295 31.1992 26.4524 31.5787C22.7013 32.5114 19.2439 31.9203 16.1742 29.5454C14.9111 28.5758 13.8936 27.3333 13.2009 25.9148L16.8676 23.126Z" fill="#45AC43"/>
<path fill-rule="evenodd" clip-rule="evenodd" d="M30.6556 29.3267C29.5701 28.4981 28.4843 27.6676 27.398 26.8352C27.304 26.7629 27.2196 26.6801 27.1304 26.602C27.8654 26.0517 28.4791 25.4011 28.8823 24.5745C29.0357 24.2433 29.1629 23.9011 29.2629 23.5508C29.3366 23.3095 29.3128 23.2162 29.0095 23.2186C27.2018 23.2337 25.394 23.2267 23.5862 23.2267C23.2032 23.2267 23.2032 23.2267 23.2032 22.8385C23.2032 21.6364 23.2092 20.4356 23.2032 19.2347C23.2032 19.0015 23.2425 18.9141 23.5077 18.9141C26.8426 18.9249 30.1771 18.9249 33.5111 18.9141C33.6919 18.9141 33.8049 18.9269 33.8358 19.1414C34.2509 22.0002 33.9179 24.7377 32.392 27.2549C31.9349 28.0355 31.348 28.7357 30.6556 29.3267Z" fill="#5D7FBE"/>
<path fill-rule="evenodd" clip-rule="evenodd" d="M16.8676 23.1265L13.2033 25.9153C12.6216 24.8342 12.2482 23.6571 12.102 22.4433C11.8136 20.3736 12.1398 18.2663 13.0415 16.3736C13.0915 16.2675 13.1605 16.1672 13.2128 16.0635C14.3823 16.9488 15.5518 17.8318 16.7213 18.7124C16.776 18.7544 16.8403 18.787 16.895 18.829C16.405 20.256 16.4299 21.6901 16.8676 23.1265Z" fill="#F4C300"/>
</g>
<defs>
<filter id="filter0_d_252_1265" x="0" y="0" width="52.0001" height="52" filterUnits="userSpaceOnUse" color-interpolation-filters="sRGB">
<feFlood flood-opacity="0" result="BackgroundImageFix"/>
<feColorMatrix in="SourceAlpha" type="matrix" values="0 0 0 0 0 0 0 0 0 0 0 0 0 0 0 0 0 0 127 0" result="hardAlpha"/>
<feOffset dx="3" dy="5"/>
<feGaussianBlur stdDeviation="7.5"/>
<feComposite in2="hardAlpha" operator="out"/>
<feColorMatrix type="matrix" values="0 0 0 0 0 0 0 0 0 0 0 0 0 0 0 0 0 0 0.08 0"/>
<feBlend mode="normal" in2="BackgroundImageFix" result="effect1_dropShadow_252_1265"/>
<feBlend mode="normal" in="SourceGraphic" in2="effect1_dropShadow_252_1265" result="shape"/>
</filter>
</defs>
</svg>
