<svg width="35" height="35" viewBox="0 0 35 35" fill="none" xmlns="http://www.w3.org/2000/svg">
<path d="M29.2432 15.5104L19.5656 6.54274C19.2672 6.26291 18.8898 6.08181 18.4848 6.02409H18.3979C18.2686 6.01541 18.1389 6.01541 18.0097 6.02409V7.55396C18.1539 7.54081 18.2994 7.55857 18.4363 7.60603C18.5732 7.65349 18.6984 7.72958 18.8036 7.82922L28.3363 16.8722C28.3649 16.9047 28.3836 16.9447 28.3899 16.9876C28.3962 17.0304 28.3899 17.0741 28.3717 17.1134C28.3536 17.1527 28.3245 17.1859 28.2878 17.209C28.2512 17.232 28.2086 17.2439 28.1653 17.2431H26.6036C26.5211 17.2409 26.439 17.256 26.3627 17.2873C26.2863 17.3185 26.2173 17.3654 26.1601 17.4248C26.1028 17.4842 26.0586 17.5549 26.0302 17.6324C26.0018 17.7099 25.9898 17.7924 25.9951 17.8748C25.9951 17.9472 25.9951 18.0225 25.9951 18.095V26.8019H22.0458V23.2612C22.0576 22.0342 21.5825 20.8527 20.7246 19.9754C20.0331 19.2693 19.1035 18.8458 18.1169 18.7875H18.0184V20.4564H18.0502C18.5141 20.4483 18.9697 20.5795 19.3581 20.8331C19.7466 21.0868 20.05 21.4511 20.2291 21.8791C20.3976 22.2625 20.4835 22.6772 20.4812 23.096V26.8251H18.0184V28.465H27.0759C27.217 28.4243 27.3455 28.3484 27.4494 28.2446C27.5532 28.1407 27.6291 28.0122 27.6698 27.871V18.8425H28.4174C28.8467 18.8425 29.2604 18.6812 29.5764 18.3905C29.7031 18.2796 29.8023 18.1407 29.8661 17.9849C29.8973 17.9057 29.9225 17.8244 29.9415 17.7415C30.0332 17.3411 30.0169 16.9235 29.8942 16.5315C29.7715 16.1395 29.5468 15.7871 29.2432 15.5104Z" fill="#3F4765"/>
<path d="M6.06337 17.7384C6.08234 17.8213 6.10753 17.9026 6.13871 17.9818C6.20255 18.1376 6.30174 18.2765 6.42845 18.3874C6.74446 18.6781 7.15811 18.8394 7.58744 18.8394H8.33499V27.8651C8.37574 28.0062 8.45159 28.1347 8.55547 28.2386C8.65934 28.3424 8.78785 28.4183 8.92898 28.459H17.9865V26.8191H15.5236V23.09C15.5213 22.6712 15.6072 22.2565 15.7757 21.8731C15.9548 21.4451 16.2582 21.0808 16.6467 20.8271C17.0351 20.5735 17.4908 20.4423 17.9546 20.4504H17.9865V18.7815H17.888C16.9013 18.8398 15.9717 19.2633 15.2802 19.9695C14.4171 20.8443 13.9366 22.0262 13.9445 23.2552V26.7843H10.0039V18.0774C10.0039 18.005 10.0039 17.9296 10.0039 17.8572C10.0092 17.7748 9.99725 17.6923 9.96884 17.6148C9.94044 17.5374 9.89619 17.4667 9.83895 17.4072C9.7817 17.3478 9.7127 17.3009 9.63634 17.2697C9.55999 17.2384 9.47795 17.2234 9.39547 17.2255H7.83373C7.79045 17.2263 7.74789 17.2144 7.71123 17.1914C7.67457 17.1684 7.6454 17.1352 7.62728 17.0958C7.60916 17.0565 7.60287 17.0128 7.60917 16.97C7.61547 16.9271 7.6341 16.8871 7.66278 16.8547L17.1955 7.81164C17.3007 7.712 17.4259 7.63591 17.5628 7.58845C17.6997 7.54099 17.8451 7.52323 17.9894 7.53638V6.00651C17.8601 5.99783 17.7304 5.99783 17.6011 6.00651H17.5142C17.1092 6.06423 16.7318 6.24533 16.4334 6.52516L6.75007 15.4928C6.44602 15.7721 6.22206 16.1275 6.10133 16.5222C5.98061 16.917 5.9675 17.3369 6.06337 17.7384Z" fill="#3F4765"/>
</svg>
