<svg width="24" height="24" viewBox="0 0 24 24" fill="none" xmlns="http://www.w3.org/2000/svg">
<path d="M19.0001 11H5.00006C3.89549 11 3.00006 11.8954 3.00006 13V20C3.00006 21.1046 3.89549 22 5.00006 22H19.0001C20.1046 22 21.0001 21.1046 21.0001 20V13C21.0001 11.8954 20.1046 11 19.0001 11Z" stroke="#A6A6A6" stroke-width="2" stroke-linecap="round" stroke-linejoin="round"/>
<path d="M7.00006 11V7C7.00006 5.67392 7.52685 4.40215 8.46453 3.46447C9.40221 2.52678 10.674 2 12.0001 2C13.3261 2 14.5979 2.52678 15.5356 3.46447C16.4733 4.40215 17.0001 5.67392 17.0001 7V11" stroke="#A6A6A6" stroke-width="2" stroke-linecap="round" stroke-linejoin="round"/>
</svg>
