<svg width="18" height="18" viewBox="0 0 18 18" fill="none" xmlns="http://www.w3.org/2000/svg">
<path d="M8.136 15.272C6.72464 15.272 5.34496 14.8535 4.17145 14.0694C2.99794 13.2853 2.08331 12.1708 1.5432 10.8668C1.00309 9.5629 0.861775 8.12809 1.13712 6.74384C1.41246 5.35959 2.0921 4.08808 3.09009 3.09009C4.08808 2.0921 5.35959 1.41246 6.74384 1.13712C8.12809 0.861775 9.5629 1.00309 10.8668 1.5432C12.1708 2.08331 13.2853 2.99795 14.0694 4.17145C14.8535 5.34496 15.272 6.72464 15.272 8.136C15.272 10.0286 14.5202 11.8437 13.1819 13.1819C11.8437 14.5202 10.0286 15.272 8.136 15.272Z" stroke="#8D93A8" stroke-width="1.556" stroke-linecap="round" stroke-linejoin="round"/>
<path d="M17.056 17.0551L14.915 14.9141" stroke="#8D93A8" stroke-width="1.556" stroke-linecap="round" stroke-linejoin="round"/>
</svg>
