<svg width="35" height="35" viewBox="0 0 35 35" fill="none" xmlns="http://www.w3.org/2000/svg">
<path d="M10.2083 29.168C10.2083 26.7517 13.4729 24.793 17.5 24.793C21.5271 24.793 24.7917 26.7517 24.7917 29.168" stroke="#3F4765" stroke-width="1.7" stroke-linecap="round" stroke-linejoin="round"/>
<path d="M26.25 20.7812C28.8253 21.4564 30.625 22.9982 30.625 24.7922" stroke="#3F4765" stroke-width="1.7" stroke-linecap="round" stroke-linejoin="round"/>
<path d="M8.75 20.7812C6.17472 21.4564 4.375 22.9982 4.375 24.7922" stroke="#3F4765" stroke-width="1.7" stroke-linecap="round" stroke-linejoin="round"/>
<path d="M17.5 20.418C19.9162 20.418 21.875 18.4592 21.875 16.043C21.875 13.6267 19.9162 11.668 17.5 11.668C15.0838 11.668 13.125 13.6267 13.125 16.043C13.125 18.4592 15.0838 20.418 17.5 20.418Z" stroke="#3F4765" stroke-width="1.7" stroke-linecap="round" stroke-linejoin="round"/>
<path d="M26.25 14.929C27.1451 14.1279 27.7083 12.9637 27.7083 11.668C27.7083 9.25172 25.7496 7.29297 23.3333 7.29297C22.2128 7.29297 21.1907 7.71421 20.4167 8.40698" stroke="#3F4765" stroke-width="1.7" stroke-linecap="round" stroke-linejoin="round"/>
<path d="M8.75 14.929C7.85495 14.1279 7.29166 12.9637 7.29166 11.668C7.29166 9.25172 9.25042 7.29297 11.6667 7.29297C12.7872 7.29297 13.8093 7.71421 14.5833 8.40698" stroke="#3F4765" stroke-width="1.7" stroke-linecap="round" stroke-linejoin="round"/>
</svg>
