<svg width="55" height="55" viewBox="0 0 55 55" fill="none" xmlns="http://www.w3.org/2000/svg">
<g filter="url(#filter0_d_2124_16382)">
<path d="M33.8298 7H21.1702C15.0011 7 10 12.0011 10 18.1702V30.8298C10 36.9989 15.0011 42 21.1702 42H33.8298C39.9989 42 45 36.9989 45 30.8298V18.1702C45 12.0011 39.9989 7 33.8298 7Z" fill="white"/>
</g>
<path d="M30.7182 17.5783C31.9602 17.5783 32.9671 16.6461 32.9671 15.4962C32.9671 14.3463 31.9602 13.4141 30.7182 13.4141C29.4761 13.4141 28.4692 14.3463 28.4692 15.4962C28.4692 16.6461 29.4761 17.5783 30.7182 17.5783Z" fill="#00AC63" stroke="white"/>
<path d="M20.4722 18.3284C20.4722 18.3284 23.8873 15.2461 30.9678 18.7007C30.9678 18.7007 34.6331 19.5199 36.3406 17.8816C36.3406 17.8816 36.2989 21.4918 30.2596 21.7003C30.2596 21.7003 28.7605 22.0726 30.4681 23.6581C30.4681 23.6581 33.6337 25.8653 33.592 32.5295C33.592 32.5295 29.8016 24.3246 26.2621 25.2822C26.2621 25.2822 20.6398 26.5735 17.1025 25.2822C17.1025 25.2822 25.3491 24.6574 26.1407 20.1596C26.137 20.1611 25.7617 18.3701 20.4722 18.3284Z" fill="#00AC63" stroke="white"/>
<path d="M24.8039 19.7871C24.8039 19.7871 24.4315 18.9121 22.2213 18.8711C22.2213 18.8711 19.0974 22.4113 19.1391 24.5768C19.9519 24.5715 20.7517 24.3716 21.4714 23.9938C22.0815 22.2588 23.2546 20.778 24.8039 19.7871Z" fill="#1A1818" stroke="white"/>
<path d="M21.0969 26.2847H19.1392C19.1392 26.2847 18.1815 30.6165 23.7629 34.3228C25.0744 35.0966 26.5607 35.5255 28.083 35.5693C29.6052 35.613 31.1136 35.2702 32.4675 34.573C32.4675 34.573 36.2989 33.4485 37.6318 28.4093C37.9784 26.9996 37.9933 25.5287 37.6753 24.1122C37.3573 22.6958 36.7151 21.3724 35.7992 20.2461C35.7992 20.2461 34.5913 21.3705 34.0916 21.4122C34.0916 21.4122 38.0898 26.1603 33.7997 31.0335C33.9867 31.8268 33.9136 32.6591 33.5912 33.4076C33.5912 33.4076 32.9664 31.9927 32.7579 31.9927C31.5346 32.902 30.0544 33.4 28.5301 33.415C27.0059 33.43 25.5162 32.9612 24.2752 32.0761C23.3335 31.4224 22.5564 30.5592 22.0049 29.5542C21.4534 28.5493 21.1426 27.4301 21.0969 26.2847Z" fill="#1A1818" stroke="white"/>
<defs>
<filter id="filter0_d_2124_16382" x="0" y="0" width="55" height="55" filterUnits="userSpaceOnUse" color-interpolation-filters="sRGB">
<feFlood flood-opacity="0" result="BackgroundImageFix"/>
<feColorMatrix in="SourceAlpha" type="matrix" values="0 0 0 0 0 0 0 0 0 0 0 0 0 0 0 0 0 0 127 0" result="hardAlpha"/>
<feOffset dy="3"/>
<feGaussianBlur stdDeviation="5"/>
<feColorMatrix type="matrix" values="0 0 0 0 0 0 0 0 0 0 0 0 0 0 0 0 0 0 0.051 0"/>
<feBlend mode="normal" in2="BackgroundImageFix" result="effect1_dropShadow_2124_16382"/>
<feBlend mode="normal" in="SourceGraphic" in2="effect1_dropShadow_2124_16382" result="shape"/>
</filter>
</defs>
</svg>
