<svg width="35" height="35" viewBox="0 0 35 35" fill="none" xmlns="http://www.w3.org/2000/svg">
<path d="M18.207 8.96094C18.1975 8.95135 18.1862 8.94374 18.1738 8.93854C18.1614 8.93334 18.1481 8.93066 18.1346 8.93066C18.1211 8.93066 18.1078 8.93334 18.0954 8.93854C18.083 8.94374 18.0717 8.95135 18.0622 8.96094C10.1251 17.3261 11.5542 21.4317 14.0952 23.3968C15.2442 24.2885 16.6718 24.7449 18.125 24.6851C19.5782 24.6254 20.9634 24.0533 22.0354 23.0703C27.1543 18.3086 19.0632 9.83257 18.207 8.96094ZM21.0929 21.8968C20.3192 22.6159 19.3184 23.0418 18.2638 23.1009C17.2092 23.1599 16.1671 22.8484 15.318 22.2202C13.3899 20.7973 12.2134 17.7666 18.2039 11.4773C18.2039 11.4773 25.026 18.207 21.0929 21.9091V21.8968Z" fill="#3F4765"/>
<path d="M28.494 8.7726C28.4968 8.5966 28.4601 8.42222 28.3865 8.26231C28.313 8.10239 28.2045 7.96102 28.069 7.84861C28.0055 7.78771 27.9306 7.74001 27.8486 7.70825C27.7666 7.6765 27.679 7.66132 27.5911 7.66362C27.5031 7.66591 27.4166 7.68562 27.3363 7.7216C27.256 7.75758 27.1837 7.80913 27.1235 7.87325C26.999 7.98945 26.9 8.13018 26.8327 8.28657C26.7654 8.44295 26.7312 8.61159 26.7323 8.78184V9.60111C25.7747 8.57197 24.6234 7.74197 23.3443 7.1587C21.4612 6.28219 19.3881 5.89251 17.3153 6.02543C15.2424 6.15835 13.2361 6.8096 11.4803 7.91946C8.38186 9.84443 5.2249 13.5897 6.17045 20.766C6.19645 20.9694 6.29359 21.157 6.44467 21.2957C6.59574 21.4344 6.79099 21.5151 6.99588 21.5237C7.23035 21.5109 7.45062 21.4073 7.60992 21.2348C7.76921 21.0622 7.85499 20.8344 7.84904 20.5997C7.84797 20.5014 7.8324 20.4039 7.80283 20.3102C7.60879 18.6316 7.06363 12.8074 12.0747 9.55183C13.4833 8.64098 15.0818 8.06494 16.7476 7.86793C18.4133 7.67092 20.1021 7.85818 21.6842 8.41533C23.2793 8.95321 24.6961 9.91839 25.7806 11.2058H24.2745C24.0956 11.2036 23.9195 11.25 23.7649 11.3401C23.6103 11.4301 23.4831 11.5604 23.3967 11.7171C23.3385 11.826 23.308 11.9477 23.308 12.0712C23.308 12.1948 23.3385 12.3165 23.3967 12.4254C23.4755 12.5806 23.5966 12.7103 23.7459 12.7996C23.8952 12.889 24.0667 12.9344 24.2406 12.9306H27.7117C27.8241 12.9323 27.9355 12.9095 28.0382 12.8637C28.1408 12.818 28.2323 12.7504 28.3062 12.6657C28.3839 12.5781 28.438 12.4721 28.4632 12.3577C28.477 12.2971 28.4832 12.235 28.4817 12.1729L28.494 8.7726Z" fill="#3F4765"/>
<path d="M18.4719 17.35C18.8385 17.9862 18.957 18.7354 18.8045 19.4536C18.7552 19.6187 18.7562 19.7947 18.8072 19.9592C18.8582 20.1237 18.9569 20.2694 19.0909 20.3776C19.2067 20.4672 19.3435 20.5256 19.4882 20.547C20.135 20.6517 20.5508 19.931 20.5632 19.4198C20.5755 18.9085 20.6278 17.1683 19.7038 16.4045C19.6062 16.3207 19.4912 16.2595 19.3671 16.2255C19.243 16.1914 19.113 16.1852 18.9862 16.2073C18.8187 16.2247 18.6634 16.303 18.5498 16.4274C18.4363 16.5517 18.3723 16.7135 18.3702 16.8819C18.3589 17.0444 18.3941 17.2068 18.4719 17.35Z" fill="#3F4765"/>
<path d="M7.6242 27.1229C7.62142 27.2989 7.65815 27.4733 7.73171 27.6332C7.80527 27.7931 7.91376 27.9345 8.04922 28.0469C8.11257 28.107 8.1872 28.1541 8.2688 28.1852C8.35041 28.2164 8.43737 28.2312 8.52469 28.2286C8.61201 28.226 8.69795 28.2062 8.77757 28.1702C8.85719 28.1343 8.92893 28.083 8.98862 28.0192C9.11264 27.9041 9.21121 27.7644 9.27805 27.609C9.34488 27.4536 9.37847 27.2859 9.37668 27.1167V26.3036C10.3309 27.3243 11.4769 28.1469 12.7492 28.7245C14.6226 29.5966 16.685 29.9843 18.7472 29.8519C20.8093 29.7195 22.8052 29.0713 24.5517 27.9668C27.6316 26.0542 30.7701 22.3305 29.8307 15.1911C29.8053 14.9883 29.7087 14.8011 29.5581 14.6629C29.4075 14.5246 29.2127 14.4444 29.0084 14.4365C28.7742 14.4485 28.5541 14.5521 28.3956 14.725C28.2371 14.8979 28.153 15.1261 28.1614 15.3605C28.1593 15.4651 28.1749 15.5692 28.2076 15.6685C28.3986 17.3379 28.9437 23.1282 23.9573 26.3652C22.5579 27.2707 20.9697 27.8434 19.3146 28.0393C17.6594 28.2353 15.9814 28.0493 14.4094 27.4956C12.8236 26.9626 11.4149 26.0036 10.3376 24.7236H11.8345C12.0123 24.7263 12.1874 24.6804 12.3411 24.5908C12.4947 24.5013 12.6209 24.3715 12.7061 24.2154C12.7649 24.1077 12.7957 23.987 12.7957 23.8643C12.7957 23.7416 12.7649 23.6209 12.7061 23.5132C12.6278 23.359 12.5077 23.23 12.3596 23.1407C12.2115 23.0514 12.0413 23.0054 11.8684 23.0081H8.38803C8.27616 23.0068 8.16536 23.0298 8.06326 23.0756C7.96116 23.1213 7.87021 23.1886 7.79668 23.2729C7.7208 23.3618 7.66698 23.4673 7.6396 23.5809C7.62735 23.6418 7.62116 23.7037 7.62112 23.7657L7.6242 27.1229Z" fill="#3F4765"/>
</svg>
