<svg width="35" height="35" viewBox="0 0 35 35" fill="none" xmlns="http://www.w3.org/2000/svg">
<path d="M30.9155 14.7719C30.8331 14.6336 30.7097 14.5244 30.5624 14.4594L24.5312 11.8188V5.91885C24.5381 5.69425 24.4687 5.47394 24.3343 5.29386L24.2968 5.24386C24.2255 5.1659 24.1386 5.10389 24.0416 5.06189C23.9447 5.01988 23.84 4.99883 23.7343 5.00011H12.3563C12.1241 4.99646 11.8998 5.08397 11.7313 5.24386L11.6813 5.29386C11.5219 5.47853 11.4362 5.71554 11.4407 5.95948V11.8375L5.34077 14.4313C5.23837 14.4778 5.15169 14.5531 5.09123 14.648C5.03077 14.7428 4.99913 14.8532 5.00014 14.9656V26.5593C4.99568 26.9895 5.09469 27.4145 5.28885 27.7985C5.483 28.1824 5.76661 28.5141 6.11576 28.7655C6.17821 28.8104 6.24288 28.8521 6.30951 28.8905C6.72293 29.1244 7.19075 29.2452 7.66574 29.2405H28.3655C29.0603 29.2479 29.7315 28.9884 30.2405 28.5155L30.3187 28.4374C30.7615 27.9679 31.0056 27.3453 30.9999 26.6999V15.0313C30.996 14.9387 30.9668 14.849 30.9155 14.7719ZM24.5187 13.925L27.5749 15.3563L24.5187 16.7375V13.925ZM13.3032 6.96572H22.5843V17.675L18.0063 19.725L13.3032 17.675V6.96572ZM11.4563 13.925V16.7375L8.40011 15.3375L11.4563 13.925ZM29.1749 26.7374C29.1685 26.8498 29.1336 26.9587 29.0735 27.0538C29.0133 27.1489 28.9299 27.2272 28.8312 27.2812C28.6902 27.3608 28.5306 27.4018 28.3687 27.3999H7.64387C7.5345 27.4035 7.42561 27.384 7.32435 27.3425C7.22309 27.301 7.13176 27.2386 7.05637 27.1593C6.91205 27.003 6.83368 26.797 6.83763 26.5843V16.7375L17.675 21.85C17.9104 21.9209 18.1615 21.9209 18.3969 21.85L29.1749 16.875V26.7374Z" fill="#3F4765"/>
<path d="M20.075 11.5435H17.0781V10.6248H19.9469C20.1889 10.6318 20.4238 10.5424 20.5999 10.3763C20.776 10.2102 20.8789 9.98086 20.8859 9.73885C20.893 9.49684 20.8036 9.26195 20.6374 9.08584C20.4713 8.90974 20.242 8.80684 20 8.7998C19.9657 8.79671 19.9312 8.79671 19.8969 8.7998H18.9344V7.8623H17.0969V8.7998H15.9375C15.7757 8.82617 15.6252 8.89945 15.5047 9.01055C15.3842 9.12165 15.2989 9.26568 15.2594 9.42479V12.7435C15.3375 13.4216 16.075 13.3904 16.075 13.3904H18.9375V14.306H16.075C15.8823 14.3024 15.6955 14.3729 15.5532 14.5029C15.3942 14.6094 15.2717 14.7621 15.2021 14.9403C15.1324 15.1185 15.119 15.3138 15.1635 15.4999C15.2081 15.686 15.3085 15.854 15.4514 15.9813C15.5942 16.1086 15.7726 16.1892 15.9625 16.2122C15.9989 16.2154 16.0355 16.2154 16.0719 16.2122H17.0969V17.1497H18.9406V16.1654H20.2219C20.3974 16.1383 20.5572 16.0488 20.672 15.9133C20.7869 15.7778 20.8489 15.6054 20.8469 15.4279V12.3623C20.7156 11.4779 20.075 11.5435 20.075 11.5435Z" fill="#3F4765"/>
</svg>
