<svg width="25" height="24" viewBox="0 0 25 24" fill="none" xmlns="http://www.w3.org/2000/svg">
<path d="M10.3184 16.75C10.7326 16.75 11.0684 16.4142 11.0684 16C11.0684 15.5858 10.7326 15.25 10.3184 15.25V16.75ZM5.31836 16V15.25C4.90415 15.25 4.56836 15.5858 4.56836 16H5.31836ZM4.56836 21C4.56836 21.4142 4.90415 21.75 5.31836 21.75C5.73257 21.75 6.06836 21.4142 6.06836 21H4.56836ZM10.3184 15.25H5.31836V16.75H10.3184V15.25ZM4.56836 16V21H6.06836V16H4.56836Z" fill="#030D45"/>
<path d="M19.736 14.9961C19.1753 16.3838 18.2365 17.5865 17.0264 18.4673C15.8163 19.3481 14.3834 19.8718 12.8905 19.9788C11.3976 20.0858 9.9046 19.7718 8.58123 19.0726C7.25786 18.3734 6.15718 17.317 5.4043 16.0234" stroke="#030D45" stroke-width="1.5" stroke-linecap="round" stroke-linejoin="round"/>
<path d="M14.3184 7.25C13.9041 7.25 13.5684 7.58579 13.5684 8C13.5684 8.41421 13.9041 8.75 14.3184 8.75V7.25ZM19.3184 8V8.75C19.7326 8.75 20.0684 8.41421 20.0684 8H19.3184ZM20.0684 3C20.0684 2.58579 19.7326 2.25 19.3184 2.25C18.9041 2.25 18.5684 2.58579 18.5684 3H20.0684ZM14.3184 8.75H19.3184V7.25H14.3184V8.75ZM20.0684 8V3H18.5684V8H20.0684Z" fill="#030D45"/>
<path d="M4.90137 9.00315C5.46205 7.61541 6.4008 6.41278 7.61091 5.53197C8.82102 4.65116 10.254 4.12749 11.7469 4.02048C13.2398 3.91346 14.7327 4.2274 16.0561 4.92661C17.3795 5.62582 18.4802 6.68226 19.233 7.97584" stroke="#030D45" stroke-width="1.5" stroke-linecap="round" stroke-linejoin="round"/>
</svg>
