<svg width="55" height="55" viewBox="0 0 55 55" fill="none" xmlns="http://www.w3.org/2000/svg">
<g filter="url(#filter0_d_2124_14886)">
<path d="M33.8298 7H21.1702C15.0011 7 10 12.0011 10 18.1702V30.8298C10 36.9989 15.0011 42 21.1702 42H33.8298C39.9989 42 45 36.9989 45 30.8298V18.1702C45 12.0011 39.9989 7 33.8298 7Z" fill="white"/>
</g>
<path d="M25.909 13.8208C26.8429 13.6506 27.8021 13.6784 28.7245 13.9024C29.647 14.1264 30.5121 14.5415 31.264 15.121C32.6215 16.1708 33.5392 17.6886 33.8384 19.3783C34.0887 20.8624 33.8575 22.3877 33.1786 23.731C32.7667 24.5287 32.1998 25.2363 31.5112 25.8124C30.0169 22.9826 28.5338 20.1491 27.0618 17.3118C25.5233 20.0895 24.0711 22.9171 22.5438 25.7029C21.5836 24.8449 20.8839 23.7342 20.5247 22.4977C20.1654 21.2611 20.161 19.9485 20.512 18.7095C20.8629 17.4706 21.5552 16.3553 22.5096 15.4908C23.464 14.6264 24.6422 14.0477 25.9098 13.8208H25.909Z" fill="#00AC63"/>
<path d="M23.7725 26.7436C24.9148 24.6585 25.9514 22.5213 27.0684 20.4258C28.1631 22.5422 29.3129 24.6302 30.4143 26.7444C30.106 26.9209 29.7872 27.0795 29.4722 27.2411C28.6583 25.7577 27.9337 24.2259 27.0781 22.7663C26.3416 24.2996 25.4897 25.7741 24.7011 27.2806C24.3704 27.1409 24.0585 26.9605 23.7725 26.7436Z" fill="#00AC63"/>
<path opacity="0.68" d="M15.6309 20.7045C16.6459 20.6867 17.6609 20.7045 18.6774 20.6889C20.1049 23.4226 21.5302 26.1556 22.9295 28.9035C23.1648 29.3503 23.3808 29.8097 23.657 30.235C24.8731 28.0918 25.941 25.8622 27.1481 23.7145C28.2808 25.8741 29.4089 28.0419 30.5505 30.2007C30.9147 29.6936 31.1388 29.1038 31.4591 28.5691C32.7883 26.0156 34.1317 23.468 35.4506 20.9093C35.5116 20.7797 35.6062 20.6494 35.7693 20.6859C36.7373 20.6859 37.7054 20.6807 38.6735 20.6859C36.578 24.6794 34.4633 28.6629 32.3296 32.6366C31.7726 33.6359 31.2654 34.6658 30.6742 35.6451C29.4343 33.4594 28.2547 31.2403 27.0826 29.0174C25.9469 31.2425 24.7651 33.4445 23.5684 35.6369C22.021 32.7914 20.5465 29.9028 19.0125 27.05C17.9014 24.9254 16.7188 22.8403 15.6309 20.7045Z" fill="#1E0800"/>
<defs>
<filter id="filter0_d_2124_14886" x="0" y="0" width="55" height="55" filterUnits="userSpaceOnUse" color-interpolation-filters="sRGB">
<feFlood flood-opacity="0" result="BackgroundImageFix"/>
<feColorMatrix in="SourceAlpha" type="matrix" values="0 0 0 0 0 0 0 0 0 0 0 0 0 0 0 0 0 0 127 0" result="hardAlpha"/>
<feOffset dy="3"/>
<feGaussianBlur stdDeviation="5"/>
<feColorMatrix type="matrix" values="0 0 0 0 0 0 0 0 0 0 0 0 0 0 0 0 0 0 0.051 0"/>
<feBlend mode="normal" in2="BackgroundImageFix" result="effect1_dropShadow_2124_14886"/>
<feBlend mode="normal" in="SourceGraphic" in2="effect1_dropShadow_2124_14886" result="shape"/>
</filter>
</defs>
</svg>
