<svg width="35" height="35" viewBox="0 0 35 35" fill="none" xmlns="http://www.w3.org/2000/svg">
<path d="M29.9995 29.0091C29.981 28.7837 29.8917 28.57 29.7444 28.3984C29.5972 28.2267 29.3994 28.106 29.1795 28.0535C27.6382 27.6528 22.783 26.5122 18.1036 26.5122V17.9301C18.1036 17.9301 26.2232 18.4604 28.7911 13.7008C28.7911 13.7008 30.2461 11.6447 29.9101 6.42576C29.9045 6.32908 29.8645 6.23759 29.7971 6.16799C29.7298 6.09839 29.6397 6.05531 29.5432 6.0466C28.3102 5.94487 23.9205 5.78766 20.5111 8.26301C20.5111 8.26301 17.9433 9.61012 16.7226 14.0738C16.7226 14.0738 14.6572 9.25562 6.85814 9.38201C6.64204 9.38626 6.43547 9.47171 6.27953 9.62137C6.12358 9.77103 6.02971 9.97392 6.01658 10.1897C5.88403 12.7976 6.30943 21.0282 16.3681 20.461V26.5399C16.3681 26.5399 10.3045 26.6787 6.7934 28.1337C6.60655 28.2095 6.44264 28.3326 6.31779 28.491C6.19294 28.6493 6.11145 28.8375 6.08132 29.0369C6.05347 29.1777 6.07065 29.3238 6.13039 29.4543C6.19014 29.5849 6.28944 29.6934 6.41424 29.7644C6.54099 29.8381 6.68267 29.8825 6.82885 29.8942C6.97504 29.906 7.12199 29.8848 7.25888 29.8322C8.2854 29.4561 11.9075 28.2909 17.3206 28.1861C21.2181 28.1453 25.0989 28.7014 28.8281 29.8353C28.9876 29.8883 29.1587 29.8956 29.3222 29.8564C29.4856 29.8172 29.6348 29.733 29.7528 29.6133C29.8345 29.5359 29.8987 29.442 29.9413 29.3378C29.9838 29.2336 30.0036 29.1216 29.9995 29.0091ZM28.341 7.7143C28.341 7.7143 29.8053 16.8913 18.1036 16.1607C18.1036 16.1515 17.971 7.96399 28.341 7.70505V7.7143ZM7.81376 11.1915C16.2756 11.2655 16.3372 18.744 16.3372 18.744C6.6516 19.4098 7.81376 11.1823 7.81376 11.1823V11.1915Z" fill="#3F4765"/>
</svg>
