<svg width="26" height="26" viewBox="0 0 26 26" fill="none" xmlns="http://www.w3.org/2000/svg">
<path d="M15.0833 10.918L15.0833 18.2096" stroke="white" stroke-width="2" stroke-linecap="round" stroke-linejoin="round"/>
<path d="M10.9167 10.918L10.9167 18.2096" stroke="white" stroke-width="2" stroke-linecap="round" stroke-linejoin="round"/>
<path d="M6.75 6.75V5.75C6.19772 5.75 5.75 6.19772 5.75 6.75H6.75ZM19.25 6.75H20.25C20.25 6.19772 19.8023 5.75 19.25 5.75V6.75ZM6.75 7.75H19.25V5.75H6.75V7.75ZM18.25 6.75V21.3333H20.25V6.75H18.25ZM18.2083 21.375H7.79167V23.375H18.2083V21.375ZM7.75 21.3333V6.75H5.75V21.3333H7.75ZM7.79167 21.375C7.76866 21.375 7.75 21.3563 7.75 21.3333H5.75C5.75 22.4609 6.66408 23.375 7.79167 23.375V21.375ZM18.25 21.3333C18.25 21.3563 18.2313 21.375 18.2083 21.375V23.375C19.3359 23.375 20.25 22.4609 20.25 21.3333H18.25Z" fill="white"/>
<path d="M4.66675 6.75H21.3334" stroke="white" stroke-width="2" stroke-linecap="round" stroke-linejoin="round"/>
<path d="M17.1666 6.75V7.75C17.7189 7.75 18.1666 7.30228 18.1666 6.75H17.1666ZM8.83325 6.75H7.83325C7.83325 7.30228 8.28097 7.75 8.83325 7.75V6.75ZM9.87492 4.625H16.1249V2.625H9.87492V4.625ZM16.1666 4.66667V6.75H18.1666V4.66667H16.1666ZM17.1666 5.75H8.83325V7.75H17.1666V5.75ZM9.83325 6.75V4.66667H7.83325V6.75H9.83325ZM16.1249 4.625C16.1479 4.625 16.1666 4.64365 16.1666 4.66667H18.1666C18.1666 3.53909 17.2525 2.625 16.1249 2.625V4.625ZM9.87492 2.625C8.74734 2.625 7.83325 3.53909 7.83325 4.66667H9.83325C9.83325 4.64365 9.85191 4.625 9.87492 4.625V2.625Z" fill="white"/>
</svg>
