<svg width="35" height="35" viewBox="0 0 35 35" fill="none" xmlns="http://www.w3.org/2000/svg">
<path d="M26.8521 8.11675H20.2633L22.8928 4.82985C23.0219 4.67149 23.1097 4.48361 23.1483 4.28301C23.187 4.08241 23.1753 3.87536 23.1144 3.68037C23.0751 3.55492 23.0105 3.43885 22.9246 3.33935C22.8386 3.23985 22.7332 3.15903 22.6148 3.10187C22.3923 2.99801 22.1411 2.97267 21.9023 3.02998C21.6635 3.08729 21.4512 3.22387 21.3001 3.41742L18.0357 7.46688L14.899 3.54514C14.7726 3.38549 14.6052 3.26311 14.4147 3.19101C14.2242 3.11891 14.0177 3.0998 13.8172 3.13569C13.6179 3.17428 13.4363 3.27564 13.2988 3.42493C13.1197 3.62346 13.0187 3.88023 13.0146 4.14757C13.0104 4.41492 13.1034 4.67469 13.2763 4.87868L15.9471 8.11675H9.15166C8.31644 8.11675 7.51537 8.44828 6.92443 9.03852C6.33348 9.62876 6.001 10.4294 6 11.2647V28.9651C6 29.801 6.33205 30.6026 6.9231 31.1936C7.51415 31.7847 8.31579 32.1168 9.15166 32.1168H26.8521C27.6873 32.1158 28.488 31.7833 29.0782 31.1923C29.6685 30.6014 30 29.8003 30 28.9651V11.2609C29.999 10.4267 29.6669 9.62695 29.0767 9.03742C28.4864 8.44788 27.6863 8.11675 26.8521 8.11675ZM28.0091 29.089C28.0091 29.2341 27.9805 29.3777 27.925 29.5117C27.8695 29.6457 27.7882 29.7674 27.6856 29.87C27.5831 29.9725 27.4613 30.0539 27.3273 30.1094C27.1933 30.1649 27.0497 30.1934 26.9047 30.1934H9.14039C8.84749 30.1934 8.56658 30.0771 8.35947 29.87C8.15235 29.6629 8.03599 29.3819 8.03599 29.089V11.2121C8.03599 10.9192 8.15235 10.6383 8.35947 10.4311C8.56658 10.224 8.84749 10.1077 9.14039 10.1077H26.9009C27.046 10.1077 27.1896 10.1362 27.3236 10.1917C27.4576 10.2472 27.5793 10.3286 27.6819 10.4311C27.7844 10.5337 27.8658 10.6554 27.9213 10.7894C27.9768 10.9234 28.0053 11.067 28.0053 11.2121L28.0091 29.089Z" fill="#3F4765"/>
<path d="M23.1482 12.0459H12.9833C12.2092 12.0459 11.4668 12.3534 10.9194 12.9008C10.372 13.4482 10.0645 14.1906 10.0645 14.9647V23.2289C10.0645 24.003 10.372 24.7454 10.9194 25.2928C11.4668 25.8401 12.2092 26.1476 12.9833 26.1476H23.1257C23.8992 26.1476 24.641 25.8406 25.1883 25.2941C25.7355 24.7475 26.0435 24.0061 26.0445 23.2326V14.9684C26.0455 14.1976 25.7415 13.4576 25.1989 12.9101C24.6563 12.3625 23.9191 12.0519 23.1482 12.0459ZM24.0498 23.1199C24.0498 23.2531 24.0236 23.385 23.9726 23.5081C23.9216 23.6311 23.8469 23.7429 23.7527 23.8371C23.6586 23.9313 23.5468 24.006 23.4237 24.057C23.3006 24.1079 23.1688 24.1342 23.0356 24.1342H13.0697C12.8007 24.1342 12.5427 24.0273 12.3525 23.8371C12.1623 23.6469 12.0554 23.3889 12.0554 23.1199V15.1375C12.0554 14.8685 12.1623 14.6105 12.3525 14.4203C12.5427 14.2301 12.8007 14.1232 13.0697 14.1232H23.0356C23.3046 14.1232 23.5625 14.2301 23.7527 14.4203C23.9429 14.6105 24.0498 14.8685 24.0498 15.1375V23.1199Z" fill="#3F4765"/>
</svg>
